<?xml version="1.0" standalone="no"?>
<!DOCTYPE svg PUBLIC "-//W3C//DTD SVG 1.1//EN" "http://www.w3.org/Graphics/SVG/1.1/DTD/svg11.dtd" >
<svg xmlns="http://www.w3.org/2000/svg" xmlns:xlink="http://www.w3.org/1999/xlink" version="1.1">
<metadata></metadata>
<defs>
<font id="focobold_italic" horiz-adv-x="1124" >
<font-face units-per-em="2048" ascent="1638" descent="-410" />
<missing-glyph horiz-adv-x="428" />
<glyph unicode="&#xfb01;" horiz-adv-x="1042" d="M-350 -268q0 37 23.5 72.5t72.5 64.5q29 -41 64.5 -62.5t87.5 -21.5q66 0 101.5 50t51.5 145l178 1071q18 111 60.5 190.5t104 129.5t140 73.5t171.5 23.5q119 0 184 -30.5t102 -63.5q29 -23 46.5 -56.5t17.5 -68.5q0 -41 -36 -82t-104 -61q-10 25 -24 53.5t-39 51 t-59.5 38t-81.5 15.5q-104 0 -148.5 -53.5t-62.5 -163.5l-13 -72h545l-121 -727q-4 -23 -6 -46.5t-2 -47.5q0 -39 5 -78t16 -68q-35 -20 -69 -28.5t-73 -8.5q-84 0 -124 33t-40 121q0 8 1.5 21.5t3.5 23.5l96 594h-266l-129 -784q-31 -195 -127.5 -303.5t-280.5 -108.5 q-41 0 -87 8t-86 26.5t-66.5 50.5t-26.5 79z" />
<glyph unicode="&#xfb02;" horiz-adv-x="1071" d="M-350 -268q0 37 23.5 72.5t72.5 64.5q29 -41 64.5 -62.5t87.5 -21.5q66 0 101.5 50t51.5 145l178 1071q37 223 153 320t300 97q127 0 230.5 -38.5t203.5 -110.5l-180 -1071q-4 -23 -6 -46.5t-2 -47.5q0 -39 5 -78t15 -68q-35 -20 -68.5 -28.5t-72.5 -8.5q-84 0 -124 33 t-40 121q0 8 1 21.5t3 23.5l174 1049q-16 12 -44.5 28.5t-82.5 16.5q-92 0 -134 -53.5t-60 -163.5l-13 -72h195l-35 -211h-194l-129 -784q-31 -195 -127.5 -303.5t-280.5 -108.5q-41 0 -87 8t-86 26.5t-66.5 50.5t-26.5 79z" />
<glyph unicode="&#xfb03;" horiz-adv-x="1642" d="M-350 -268q0 37 23.5 72.5t72.5 64.5q29 -41 64.5 -62.5t87.5 -21.5q66 0 101.5 50t51.5 145l180 1081q18 115 56.5 192.5t92.5 125.5t124.5 68.5t159.5 20.5q92 0 171.5 -31.5t133.5 -84.5q61 59 139 87.5t197 28.5t184 -30.5t102 -63.5q29 -23 46.5 -56.5t17.5 -68.5 q0 -41 -36 -82t-103 -61q-10 25 -24.5 53.5t-39.5 51t-59.5 38t-81.5 15.5q-104 0 -148.5 -53.5t-62.5 -163.5l-13 -72h545l-121 -727q-4 -23 -6 -46.5t-2 -47.5q0 -39 5 -78t16 -68q-35 -20 -69 -28.5t-73 -8.5q-84 0 -123.5 33t-39.5 121q0 8 1 21.5t3 23.5l96 594h-266 l-129 -784q-35 -227 -139.5 -319.5t-272.5 -92.5q-117 0 -187.5 37t-117.5 84q-102 -121 -291 -121q-41 0 -87 8t-86 26.5t-66.5 50.5t-26.5 79zM303 -115q20 -45 70.5 -70.5t99.5 -25.5q37 0 66.5 8t51 29.5t37 60.5t25.5 103l129 774h-329l-129 -784q-4 -31 -8.5 -48.5 t-12.5 -46.5zM487 975h330l6 37q6 39 15.5 78.5t21.5 74.5q-29 37 -74 64.5t-110 27.5q-70 0 -113 -36.5t-61 -151.5z" />
<glyph unicode="&#xfb04;" horiz-adv-x="1671" d="M-350 -268q0 37 23.5 72.5t72.5 64.5q29 -41 64.5 -62.5t87.5 -21.5q66 0 101.5 50t51.5 145l180 1081q18 115 56.5 192.5t92.5 125.5t124.5 68.5t159.5 20.5q92 0 171.5 -31.5t133.5 -84.5q61 59 133.5 87.5t191.5 28.5q127 0 224.5 -38.5t197.5 -110.5l-180 -1071 q-4 -23 -6 -46.5t-2 -47.5q0 -39 5 -78t15 -68q-35 -20 -68.5 -28.5t-72.5 -8.5q-84 0 -124 33t-40 121q0 8 1 21.5t3 23.5l174 1049q-16 12 -44.5 27.5t-82.5 17.5q-92 0 -134 -53.5t-60 -163.5l-13 -72h195l-35 -211h-194l-129 -784q-35 -227 -139.5 -319.5t-272.5 -92.5 q-117 0 -187.5 37t-117.5 84q-102 -121 -291 -121q-41 0 -87 8t-86 26.5t-66.5 50.5t-26.5 79zM303 -115q20 -45 70.5 -70.5t99.5 -25.5q37 0 66.5 8t51 29.5t37 60.5t25.5 103l129 774h-329l-129 -784q-4 -31 -8.5 -48.5t-12.5 -46.5zM487 975h330l6 37q6 39 15.5 78.5 t21.5 74.5q-29 37 -74 64.5t-110 27.5q-70 0 -113 -36.5t-61 -151.5z" />
<glyph horiz-adv-x="0" />
<glyph unicode="&#xd;" horiz-adv-x="335" />
<glyph unicode=" "  horiz-adv-x="428" />
<glyph unicode="&#x09;" horiz-adv-x="428" />
<glyph unicode="&#xa0;" horiz-adv-x="428" />
<glyph unicode="!" horiz-adv-x="536" d="M74 102q0 96 50 142.5t120 46.5q66 0 102.5 -42t36.5 -91q0 -96 -50 -142.5t-120 -46.5q-66 0 -102.5 42t-36.5 91zM158 520q0 12 1 24.5t3 24.5l133 803q25 4 50.5 6t45.5 2q84 0 119 -40t35 -99q0 -12 -1 -24.5t-3 -24.5l-133 -803q-25 -4 -50.5 -6t-46.5 -2 q-84 0 -118.5 40t-34.5 99z" />
<glyph unicode="&#x22;" horiz-adv-x="718" d="M158 870l86 519q14 4 34.5 6t36.5 2q66 0 91.5 -25.5t25.5 -73.5q0 -10 -2 -20t-4 -21l-82 -387h-186zM490 870l86 519q14 4 34.5 6t36.5 2q66 0 91.5 -25.5t25.5 -73.5q0 -10 -2 -20t-4 -21l-82 -387h-186z" />
<glyph unicode="#" horiz-adv-x="1253" d="M55 365l41 163h242l70 252h-238l41 164h242l82 297h196l-82 -297h199l82 297h196l-82 -297h244l-41 -164h-248l-69 -252h244l-41 -163h-248l-86 -312h-197l86 312h-199l-86 -312h-196l86 312h-238zM535 528h198l70 252h-199z" />
<glyph unicode="$" d="M80 172q0 49 29.5 91t72.5 71q68 -68 144 -107t180 -39q59 0 100 16.5t65.5 42t36 58.5t11.5 66q0 35 -11.5 62.5t-38 53t-69.5 54t-104 65.5q-131 78 -207 163t-76 218q0 152 88 246t244 123l35 198h135l-33 -186q39 0 76 -6l33 192h135l-39 -225q41 -16 70.5 -32.5 t46.5 -30.5q53 -45 53 -103q0 -49 -35 -95t-86 -69q-55 66 -121.5 104t-157.5 38q-92 0 -135 -36t-43 -95q0 -39 17.5 -70t46 -56.5t67.5 -49t80 -48.5q82 -49 140.5 -95t95.5 -93t54 -98t17 -113q0 -164 -87 -266.5t-242 -136.5l-33 -197h-135l28 178h-20h-27.5t-25.5 2 l-31 -180h-135l33 197q-57 12 -99.5 30.5t-72.5 40.5q-35 27 -52.5 52.5t-17.5 64.5z" />
<glyph unicode="%" horiz-adv-x="1640" d="M145 967q0 80 24 157.5t70 139t113.5 99.5t153.5 38q70 0 120 -25.5t82.5 -66.5t48 -94.5t15.5 -110.5q0 -82 -22.5 -160t-67.5 -139.5t-112.5 -98t-155.5 -36.5q-72 0 -122 24.5t-83 66.5t-48.5 95t-15.5 111zM274 0l891 1284q35 51 74 83t100 32q70 0 119 -23 l-952 -1376h-232zM352 948q0 -20 3 -41.5t11.5 -39t25 -29t40.5 -11.5q41 0 67.5 36t42 85t20.5 98t5 76q0 20 -3 42t-12 40.5t-24.5 29.5t-42.5 11q-55 0 -94 -79t-39 -218zM952 264q0 80 23.5 158t70 139.5t114 99t153.5 37.5q70 0 120 -25.5t82.5 -66.5t48 -94t15.5 -111 q0 -82 -22.5 -159.5t-67.5 -139t-112.5 -98.5t-155.5 -37q-72 0 -122 24.5t-83 66.5t-48.5 95.5t-15.5 110.5zM1159 246q0 -20 3 -42t11.5 -39.5t24.5 -28.5t41 -11q41 0 67.5 36t42 85t20.5 98t5 76q0 20 -3 41.5t-12 40t-24.5 30t-42.5 11.5q-55 0 -94 -79t-39 -218z" />
<glyph unicode="&#x26;" horiz-adv-x="1292" d="M74 350q0 82 27.5 155t71.5 132t99.5 106.5t110.5 77.5q-20 57 -31.5 110.5t-11.5 100.5q0 74 20.5 139.5t65.5 115.5t115.5 79t171.5 29q72 0 125 -20.5t89 -52.5t53 -68.5t17 -67.5q0 -53 -31.5 -86t-101.5 -53q-23 57 -59.5 96t-93.5 39q-70 0 -104 -44t-34 -104 q0 -55 21.5 -120.5t61.5 -139.5t93.5 -153.5t118.5 -161.5q12 39 19.5 83t7.5 93q0 59 -9 116.5t-26 102.5h453l-31 -186h-188q4 -23 5 -48.5t1 -41.5q0 -78 -20.5 -155t-59.5 -147q51 -59 105.5 -117.5t109.5 -117.5q-35 -37 -72 -50.5t-80 -13.5q-45 0 -79.5 10.5 t-67.5 43.5l-66 69q-72 -59 -163 -93t-197 -34q-90 0 -169 22.5t-138.5 69t-94 117t-34.5 168.5zM330 389q0 -92 52 -143t163 -51q104 0 190 63q-72 90 -140.5 185.5t-123.5 193.5q-51 -35 -96 -96.5t-45 -151.5z" />
<glyph unicode="'" horiz-adv-x="387" d="M158 870l86 519q14 4 34.5 6t36.5 2q66 0 91.5 -25.5t25.5 -73.5q0 -10 -2 -20t-4 -21l-82 -387h-186z" />
<glyph unicode="(" horiz-adv-x="733" d="M213 352q0 131 20.5 264.5t57.5 256t89 230t116.5 187.5t139.5 126t157 46q33 0 56 -5t34 -13q-111 -100 -188 -227t-124 -270.5t-67.5 -298t-20.5 -310.5q0 -147 28 -293.5t93 -273.5q-20 -12 -47 -17.5t-49 -5.5q-59 0 -104.5 33t-78 85t-54 118.5t-35 134t-18.5 129 t-5 104.5z" />
<glyph unicode=")" horiz-adv-x="733" d="M-102 -233q111 100 187.5 227t123.5 270.5t67.5 298t20.5 309.5q0 147 -27.5 294t-93.5 274q20 12 47 17t49 5q88 0 145.5 -69.5t91.5 -167t46 -199.5t12 -168q0 -131 -20.5 -264t-57 -256t-89 -230.5t-117 -187.5t-139 -126t-156.5 -46q-33 0 -56.5 5t-33.5 14z" />
<glyph unicode="*" horiz-adv-x="854" d="M176 911q0 35 29 52q10 4 20.5 9t30.5 11l84 27q31 10 43 10q31 0 45 -27q6 -12 6 -22q0 -16 -11 -30.5t-26 -27.5l-61 -55q-8 -10 -20.5 -21.5t-22.5 -15.5q-16 -10 -35 -10q-37 0 -65 47q-16 29 -17 53zM182 1190q0 23 15 49q27 49 67 49q14 0 29 -8q18 -12 43 -33 l65 -59q37 -35 37 -60q0 -12 -6 -24q-8 -14 -18.5 -18.5t-22.5 -4.5q-27 0 -45 9l-78 24q-12 4 -27.5 9.5t-25.5 11.5q-33 14 -33 55zM442 731q0 25 9 55l18 86q6 33 18.5 50.5t38.5 17.5q29 0 39 -20.5t15 -45.5l18 -81q4 -10 7 -28t3 -28q0 -27 -18.5 -47t-63.5 -20 q-43 0 -63.5 17.5t-20.5 43.5zM444 1382q0 27 20.5 44.5t63.5 17.5q45 0 63.5 -20.5t18.5 -47.5q0 -10 -3 -27.5t-7 -27.5l-18 -82q-4 -25 -14.5 -45t-39.5 -20q-27 0 -39 17t-18 50l-18 86q-8 31 -9 55zM610 1128q0 16 10.5 28.5t28.5 29.5l64 59q20 18 37.5 29.5 t35.5 11.5q37 0 66 -49q16 -29 16 -49q0 -18 -9 -32.5t-23 -22.5q-10 -6 -26.5 -11.5t-27.5 -9.5l-80 -25q-18 -8 -45 -8q-12 0 -22 4t-19 19q-6 12 -6 26zM612 973q0 12 6 24q14 27 46 27q12 0 43 -10l84 -27q18 -6 29 -11t22 -9q29 -16 28 -49q0 -25 -18 -56 q-14 -25 -31.5 -35t-34.5 -10q-18 0 -32 8q-10 4 -22.5 15.5t-20.5 21.5l-64 56q-14 12 -24.5 25t-10.5 30z" />
<glyph unicode="+" d="M150 575l38 224h320l57 352h240l-57 -352h319l-39 -224h-319l-58 -350h-239l57 350h-319z" />
<glyph unicode="," horiz-adv-x="471" d="M-51 -199q53 25 102 66t70 119q-31 23 -52.5 50t-21.5 81q0 82 48 125t114 43t103.5 -44t37.5 -120q0 -63 -26.5 -132t-69.5 -125.5t-98.5 -93t-112.5 -36.5q-82 0 -94 67z" />
<glyph unicode="-" horiz-adv-x="862" d="M137 557q0 23 4 51.5t15 55.5h450q84 0 118 -39t32 -93q0 -23 -4 -52t-15 -56h-450q-84 0 -118 40t-32 93z" />
<glyph unicode="." horiz-adv-x="475" d="M47 102q0 96 50 142.5t120 46.5q66 0 102.5 -42t36.5 -91q0 -96 -50 -142.5t-120 -46.5q-66 0 -102.5 42t-36.5 91z" />
<glyph unicode="/" horiz-adv-x="759" d="M-41 0l641 1237q39 74 86 109.5t125 35.5q35 0 63.5 -7t49.5 -17l-705 -1358h-260z" />
<glyph unicode="0" d="M106 477q2 162 37 323t109 289t186.5 206.5t270.5 78.5q119 0 196.5 -46t124.5 -119.5t65.5 -164t18.5 -178.5q-2 -166 -36 -326.5t-106.5 -287.5t-186 -205t-273.5 -78q-119 0 -196.5 46t-125 120t-66 164t-18.5 178zM379 461q2 -123 37 -191.5t125 -68.5q61 0 116.5 52 t96.5 144t63.5 217t22.5 269q-2 123 -37 192.5t-127 69.5q-66 0 -120 -53.5t-94 -145.5t-61.5 -217t-21.5 -268z" />
<glyph unicode="1" d="M276 1028q0 76 86 121l310 162q41 23 84 37t86 14q55 0 98 -35l-221 -1327h-270l169 1022l-282 -137q-23 35 -41.5 70.5t-18.5 72.5z" />
<glyph unicode="2" d="M68 0l30 193q104 86 213 175t232 212q43 45 83 92t70.5 95t48 96t17.5 98q0 182 -164 182q-88 0 -157.5 -47t-121.5 -101q-47 23 -70.5 59t-23.5 74q0 59 51 109q63 59 157.5 98t230.5 39q174 0 275 -99t101 -269q0 -139 -56 -252t-177 -238q-80 -84 -160 -152.5 t-176 -144.5h330q94 0 133 -33.5t39 -99.5q0 -25 -4 -49.5t-11 -36.5h-890z" />
<glyph unicode="3" d="M78 176q-2 45 26.5 87t69.5 75q33 -35 64.5 -61.5t65.5 -45t76 -27.5t97 -9q98 0 160.5 55t62.5 151q0 90 -45 143.5t-143 53.5h-88l35 207h88q37 0 77 9t73.5 30.5t56 59.5t22.5 97q0 66 -44 107t-124 41q-84 0 -154.5 -43t-121.5 -96q-47 23 -77 57.5t-30 71.5 q0 55 51 104q59 53 153.5 92t223.5 39q98 0 171 -27.5t121 -72.5t72.5 -102.5t24.5 -114.5q0 -88 -27.5 -148.5t-66.5 -101.5t-81 -64.5t-72 -35.5q100 -51 138 -127t38 -168q0 -102 -34 -184.5t-98.5 -139.5t-156.5 -88t-207 -31q-117 0 -187.5 21.5t-117.5 52.5 t-68.5 61.5t-23.5 71.5z" />
<glyph unicode="4" d="M76 326l30 182l615 725q45 57 95 93t122 36q25 0 55.5 -9.5t53.5 -25.5l-134 -795h56q57 0 79.5 -25.5t22.5 -74.5q0 -61 -20 -106h-172l-54 -326h-264l53 326h-538zM354 535h295l72 432z" />
<glyph unicode="5" d="M98 176q-2 45 27 87t70 75q68 -72 137 -107.5t172 -35.5q111 0 170 69.5t59 188.5q0 102 -56 152t-155 50q-115 0 -211 -47l-90 45l144 705h704q-2 -66 -12 -110t-35 -70.5t-64.5 -38t-97.5 -11.5h-307l-53 -286q29 6 63.5 10t63.5 4q100 0 172.5 -34t118 -89t67 -128 t21.5 -152q0 -96 -32 -184.5t-93.5 -155t-154.5 -105.5t-216 -39q-125 0 -195.5 21.5t-117.5 50.5q-96 55 -99 135z" />
<glyph unicode="6" d="M145 442q0 170 47.5 337t143.5 299t241.5 214t344.5 82q76 0 104.5 -30.5t28.5 -73.5q0 -31 -8.5 -55.5t-22.5 -49.5q-55 6 -109 6q-96 0 -170.5 -28.5t-131 -77.5t-96.5 -115.5t-66 -142.5q59 51 122.5 70.5t126.5 19.5q88 0 153 -33t105.5 -89t61 -131t20.5 -159 q0 -109 -29.5 -203t-90 -164.5t-152.5 -111.5t-217 -41q-186 0 -296 120.5t-110 356.5zM401 446q0 -121 38 -194.5t128 -73.5t152.5 72t62.5 225q0 88 -41 149.5t-127 61.5q-61 0 -111 -23.5t-83 -62.5q-8 -29 -13.5 -66.5t-5.5 -87.5z" />
<glyph unicode="7" d="M158 0l637 1124h-602q2 131 47 182.5t161 51.5h627q55 0 73.5 -25.5t10.5 -72.5l-12 -82l-639 -1178h-303z" />
<glyph unicode="8" d="M109 350q0 74 23.5 132.5t61 104.5t85 77.5t96.5 54.5q-70 51 -107 116.5t-37 131.5q0 100 38 176t100.5 127t144.5 77.5t170 26.5q92 0 167 -25.5t126 -69.5t78.5 -106.5t27.5 -136.5q0 -59 -18 -109t-48 -91t-68 -73t-79 -56q90 -53 131 -126t41 -157 q0 -121 -39.5 -207t-108.5 -141.5t-160 -81t-191 -25.5q-98 0 -179 28t-137.5 78t-87 119.5t-30.5 155.5zM362 360q0 -82 49.5 -134t141.5 -52q45 0 86 15.5t72.5 46t50 76.5t18.5 108q0 84 -50 136t-140 52q-92 0 -160 -63.5t-68 -184.5zM483 971q0 -70 41 -113t115 -43 t130 51.5t56 151.5q0 72 -42 115t-113 43q-76 0 -131.5 -52.5t-55.5 -152.5z" />
<glyph unicode="9" d="M145 70q0 31 8.5 55.5t22.5 48.5q55 -6 109 -6q100 0 177 29.5t134 79t94 116t58 139.5q-59 -51 -122 -70.5t-126 -19.5q-86 0 -150.5 33t-106.5 89.5t-62.5 131t-20.5 158.5q0 106 30.5 200.5t92 165t152.5 112.5t214 42q186 0 296 -120.5t110 -356.5q0 -174 -43 -341 t-137.5 -298t-241 -212t-354.5 -81q-76 0 -105 31t-29 74zM418 864q0 -88 41 -149.5t127 -61.5q61 0 111.5 23.5t82.5 62.5q8 29 13.5 67t5.5 87q0 121 -38 194.5t-128 73.5t-152.5 -71.5t-62.5 -225.5z" />
<glyph unicode=":" horiz-adv-x="475" d="M47 102q0 96 50 142.5t120 46.5q66 0 102.5 -42t36.5 -91q0 -96 -50 -142.5t-120 -46.5q-66 0 -102.5 42t-36.5 91zM164 837q0 96 50 142.5t120 46.5q66 0 102.5 -42t36.5 -91q0 -96 -50 -142.5t-120 -46.5q-66 0 -102.5 42t-36.5 91z" />
<glyph unicode=";" horiz-adv-x="475" d="M-51 -199q53 25 102 66t70 119q-31 23 -52.5 50t-21.5 81q0 82 48 125t114 43t103.5 -44t37.5 -120q0 -63 -26.5 -132t-69.5 -125.5t-98.5 -93t-112.5 -36.5q-82 0 -94 67zM164 837q0 96 50 142.5t120 46.5q66 0 102.5 -42t36.5 -91q0 -96 -50 -142.5t-120 -46.5 q-66 0 -102.5 42t-36.5 91z" />
<glyph unicode="&#x3c;" d="M182 557l37 221l864 361l-43 -256l-575 -232l500 -227l-39 -234z" />
<glyph unicode="=" d="M147 346l39 232h815l-38 -232h-816zM219 776l39 232h815l-39 -232h-815z" />
<glyph unicode="&#x3e;" d="M123 197l43 256l575 231l-499 227l39 234l743 -367l-37 -221z" />
<glyph unicode="?" horiz-adv-x="872" d="M160 1169q0 59 51 109q59 53 146 85t198 32q78 0 143.5 -20.5t113.5 -60.5t75.5 -99.5t27.5 -135.5q0 -72 -21.5 -131t-54 -107t-69.5 -86t-70 -65q-41 -35 -75.5 -64.5t-62 -60t-45 -69.5t-23.5 -93q-18 -6 -41 -8t-39 -2q-66 0 -93.5 28t-27.5 85q0 27 6 52.5t23.5 54 t47 61.5t76.5 74q37 31 74 61.5t66.5 65t48 74.5t18.5 89q0 125 -143 125q-78 0 -140.5 -33.5t-115.5 -93.5q-47 23 -70.5 58.5t-23.5 74.5zM178 102q0 96 50.5 142.5t119.5 46.5q66 0 102.5 -42t36.5 -91q0 -96 -50 -142.5t-120 -46.5q-66 0 -102.5 42t-36.5 91z" />
<glyph unicode="@" horiz-adv-x="1482" d="M72 1014q0 55 67 108q115 92 258.5 136.5t284.5 44.5q190 0 327.5 -56.5t226.5 -153t132 -222.5t43 -265q0 -197 -50 -355.5t-143.5 -270t-227.5 -172t-300 -60.5q-252 0 -387 104.5t-135 309.5q0 94 38 166.5t101.5 123t146.5 77t171 26.5h52t58 -4l6 39 q10 66 -15.5 110.5t-107.5 44.5q-78 0 -132 -30.5t-105 -83.5q-90 41 -90 100q0 47 49 90q45 41 125 74t184 33q162 0 239 -81t77 -210q0 -20 -2 -42t-7 -44l-43 -248q-4 -16 -6 -36.5t-2 -41.5q0 -47 5 -76.5t10 -44.5q-51 -31 -113 -30q-70 0 -99.5 24.5t-29.5 91.5 q0 6 1 23.5t3 26.5l27 151q-14 2 -37 3t-35 1q-117 0 -183.5 -57t-66.5 -176q0 -127 87 -179.5t226 -52.5q113 0 203 43t153.5 128t98.5 213t35 298q0 113 -35 206t-102.5 158.5t-164.5 101.5t-222 36q-156 0 -279 -62.5t-213 -156.5q-102 49 -102 119z" />
<glyph unicode="A" horiz-adv-x="1224" d="M-20 0l638 1348q27 12 62 22t70 10q70 0 113.5 -30.5t58.5 -106.5l221 -1243h-283l-43 293h-428l-125 -293h-284zM481 514h303l-71 541z" />
<glyph unicode="B" horiz-adv-x="1126" d="M63 0l226 1362q98 10 181 16t169 6q125 0 211 -27.5t138 -73.5t74.5 -106.5t22.5 -123.5q0 -98 -50 -186.5t-173 -145.5q82 -37 137.5 -109.5t55.5 -181.5q0 -121 -45 -204t-127 -133t-193.5 -71.5t-243.5 -21.5h-383zM360 203h101q162 0 236.5 56t74.5 171q0 86 -47 132 t-145 46h-154zM459 807h145q92 0 152.5 55t60.5 170q0 74 -47 114t-133 40q-25 0 -63.5 -1t-51.5 -3z" />
<glyph unicode="C" horiz-adv-x="1204" d="M133 537q0 150 43 303t130 277t222.5 203t319.5 79q135 0 224 -49.5t132 -114.5q14 -23 19.5 -46.5t5.5 -45.5q0 -59 -38 -99t-110 -57q-37 86 -96 135t-166 49q-84 0 -156.5 -43t-126 -126.5t-85 -207.5t-31.5 -286q0 -66 16.5 -123t48 -99t77.5 -66.5t106 -24.5 q59 0 110 15t95.5 40.5t81 58.5t65.5 66q47 -35 72.5 -71t25.5 -71q0 -57 -31.5 -97t-89.5 -75q-61 -39 -153 -67.5t-203 -28.5q-131 0 -226.5 43t-157.5 119t-93 180.5t-31 229.5z" />
<glyph unicode="D" horiz-adv-x="1259" d="M63 0l226 1358q131 18 222.5 22t150.5 4q154 0 263 -40.5t177.5 -114.5t100.5 -175.5t32 -219.5q0 -154 -41 -303.5t-135 -267.5t-244.5 -190.5t-368.5 -72.5h-383zM375 217h117q115 0 200.5 49t142 135t85 203t28.5 252q0 63 -18.5 120.5t-53 98.5t-85.5 65.5t-117 24.5 q-98 0 -144 -6z" />
<glyph unicode="E" horiz-adv-x="987" d="M63 0l228 1372h794q-2 -61 -12 -103t-33.5 -67.5t-60.5 -37t-92 -11.5h-357l-55 -338h399l-36 -219h-400l-61 -377h362q94 0 133 -33.5t39 -99.5q0 -25 -4 -49.5t-10 -36.5h-834z" />
<glyph unicode="F" horiz-adv-x="972" d="M63 0l228 1372h794q-2 -61 -12 -103t-33.5 -67.5t-60.5 -37t-92 -11.5h-357l-57 -352h401l-36 -219h-402l-96 -582h-277z" />
<glyph unicode="G" horiz-adv-x="1273" d="M133 537q0 150 43 303t130 277t222.5 203t319.5 79q135 0 224 -49.5t132 -114.5q14 -23 19.5 -46.5t5.5 -45.5q0 -59 -38 -99t-110 -57q-37 86 -96 135t-166 49q-84 0 -156.5 -43t-126 -126.5t-85 -207.5t-31.5 -286q0 -66 16.5 -123t48 -99t77.5 -66.5t106 -24.5 q68 0 121 19t102 56l41 248h-213l35 215h475l-92 -559q-51 -57 -112.5 -97t-127.5 -64.5t-131.5 -36t-124.5 -11.5q-131 0 -226.5 43t-157.5 119t-93 180.5t-31 229.5z" />
<glyph unicode="H" horiz-adv-x="1243" d="M63 0l228 1372q25 4 50.5 6t45.5 2q84 0 119 -40t35 -99q0 -12 -1 -24.5t-3 -24.5l-62 -377h449l92 557q25 4 50.5 6t45.5 2q84 0 119 -40t35 -99q0 -12 -1 -24.5t-3 -24.5l-197 -1192h-277l99 594h-449l-98 -594h-277z" />
<glyph unicode="I" horiz-adv-x="518" d="M63 0l228 1372q25 4 50.5 6t45.5 2q84 0 119 -40t35 -99q0 -12 -1 -24.5t-3 -24.5l-197 -1192h-277z" />
<glyph unicode="J" horiz-adv-x="518" d="M-229 -268q0 14 2 33.5t6 39.5q63 0 114.5 10.5t86.5 41.5t57 73.5t33 106.5l221 1335q25 4 50.5 6t45.5 2q84 0 119 -40t35 -99q0 -12 -1 -24.5t-3 -24.5l-189 -1129q-20 -104 -52 -202.5t-101 -167.5q-49 -49 -123 -77t-154 -28q-74 0 -110.5 33t-36.5 111z" />
<glyph unicode="K" horiz-adv-x="1112" d="M63 0l228 1372q25 4 49.5 6t44.5 2q84 0 117 -40t33 -99q0 -12 -1.5 -24.5t-3.5 -24.5l-71 -436q6 20 21.5 43.5t30.5 44t28.5 36t19.5 21.5l328 369q55 61 103 85.5t102 24.5q53 0 94 -17t61 -44l-542 -623l364 -676q-41 -25 -78 -34t-76 -9q-70 0 -115.5 23t-78.5 78 l-217 395q-23 41 -40.5 82t-23.5 86l-106 -641h-271z" />
<glyph unicode="L" horiz-adv-x="997" d="M63 0l228 1372q25 4 51.5 6t46.5 2q84 0 118 -40t34 -99q0 -12 -1 -24.5t-3 -24.5l-160 -971h362q94 0 133 -33.5t39 -99.5q0 -25 -4 -50.5t-10 -37.5h-834z" />
<glyph unicode="M" horiz-adv-x="1501" d="M23 0l313 1360q23 6 59.5 13t77.5 7q68 0 97.5 -34.5t39.5 -85.5l162 -707l397 704q37 66 82 94.5t101 28.5q41 0 77.5 -5t53.5 -15l-131 -1360h-258l88 883l-342 -596h-226l-141 575q-23 -102 -48.5 -211.5t-50 -220.5t-49 -220.5t-46.5 -209.5h-256z" />
<glyph unicode="N" horiz-adv-x="1239" d="M63 0l226 1366q23 4 52.5 9t64.5 5q72 0 106.5 -33.5t58.5 -93.5l310 -786l151 905q23 4 45.5 6t40.5 2q80 0 112 -40t32 -99q0 -12 -1 -24.5t-4 -24.5l-196 -1192h-230l-366 907l-148 -907h-254z" />
<glyph unicode="O" horiz-adv-x="1341" d="M133 512q0 156 42 314.5t129 285.5t219.5 207t312.5 80q131 0 222 -45t148.5 -120t84 -174t26.5 -208q0 -158 -41 -315.5t-126 -284.5t-215 -207t-310 -80q-133 0 -226.5 45t-153 120t-86 174t-26.5 208zM420 483q0 -129 54 -208.5t175 -79.5q74 0 141.5 48t121 137 t85 216t31.5 285q0 127 -54 208.5t-169 81.5q-80 0 -150.5 -47t-123 -136t-82 -216t-29.5 -289z" />
<glyph unicode="P" horiz-adv-x="1120" d="M63 0l224 1362q96 12 187 17t175 5q129 0 222.5 -29.5t153.5 -80.5t89 -121t29 -149q0 -139 -46 -237.5t-129 -160t-201 -89.5t-259 -28h-92l-82 -489h-271zM451 707h100q68 0 123 14t95 48t61.5 89t21.5 137q0 92 -64.5 137.5t-156.5 45.5q-29 0 -58.5 -1t-46.5 -6z" />
<glyph unicode="Q" horiz-adv-x="1341" d="M133 512q0 156 42 314.5t129 285.5t219.5 207t312.5 80q131 0 222 -45t148.5 -120t84 -174t26.5 -208q0 -158 -41 -315.5t-126 -284.5t-215 -207t-310 -80q-133 0 -226.5 45t-153 120t-86 174t-26.5 208zM420 483q0 -129 54 -208.5t175 -79.5q74 0 141.5 48t121 137 t85 216t31.5 285q0 127 -54 208.5t-169 81.5q-80 0 -150.5 -47t-123 -136t-82 -216t-29.5 -289zM569 -139q27 25 57.5 34t65.5 9q47 0 79 -15.5t63 -40.5q41 -35 105.5 -66.5t172.5 -35.5q-8 -80 -55 -124t-125 -44q-59 0 -115.5 26.5t-104.5 68.5t-85.5 91.5t-57.5 96.5z " />
<glyph unicode="R" horiz-adv-x="1114" d="M63 0l226 1364q92 10 178 15t166 5q129 0 221 -27.5t150.5 -76.5t85 -115.5t26.5 -142.5q0 -186 -83 -298t-232 -159l221 -545q-41 -23 -79 -33t-83 -10q-78 0 -113.5 32t-66.5 110l-158 405h-102l-86 -524h-271zM455 737h82q63 0 116.5 13.5t91 44t58 82t20.5 127.5 q0 78 -59 124t-148 46q-29 0 -52 -1.5t-38 -3.5z" />
<glyph unicode="S" horiz-adv-x="1048" d="M43 172q0 51 31.5 95t75.5 73q70 -70 146.5 -106.5t182.5 -36.5q51 0 89 15t62.5 39.5t36 55.5t11.5 62q0 35 -10.5 62.5t-35 55t-65.5 56t-104 63.5q-137 76 -207 167t-70 233q0 92 36 164.5t99.5 124t149.5 78t186 26.5q63 0 115.5 -10.5t94.5 -25.5t72 -33.5t48 -33.5 q51 -43 51 -100q0 -53 -34.5 -99t-85.5 -69q-55 63 -121 99t-158 36q-78 0 -124 -40t-46 -95q0 -78 53 -126t144 -99q88 -51 147 -98.5t95 -95.5t50.5 -99t14.5 -113q0 -104 -36 -185t-101.5 -136.5t-155.5 -83t-199 -27.5q-135 0 -224 24.5t-142 63.5q-37 27 -54.5 53.5 t-17.5 65.5z" />
<glyph unicode="T" horiz-adv-x="1105" d="M154 1143q2 131 47 180t161 49h879q-2 -66 -12 -109.5t-35 -70.5t-64.5 -38t-97.5 -11h-211l-188 -1143h-277l189 1143h-391z" />
<glyph unicode="U" horiz-adv-x="1243" d="M139 381q0 39 4 80t11 82l137 829q25 4 51.5 6t46.5 2q84 0 118 -40t34 -99q0 -12 -1 -24.5t-3 -24.5l-107 -643q-8 -43 -10 -79t-2 -69q0 -109 43 -158.5t145 -49.5q61 0 105.5 17t76 57t52 102.5t34.5 154.5l142 848q25 4 50.5 6t45.5 2q84 0 119 -40t35 -99 q0 -12 -1 -24.5t-3 -24.5l-111 -666q-23 -139 -65 -243.5t-109.5 -175t-164.5 -106.5t-228 -36q-125 0 -210 32t-137.5 87t-75 131t-22.5 166z" />
<glyph unicode="V" horiz-adv-x="1196" d="M184 1358q20 8 57.5 15t84.5 7q78 0 113.5 -38.5t45.5 -112.5l113 -893l401 899q33 72 80 108.5t125 36.5q31 0 62.5 -5t72.5 -17l-645 -1358h-305z" />
<glyph unicode="W" horiz-adv-x="1712" d="M184 1352q27 12 68 20t72 8q74 0 109.5 -33.5t43.5 -99.5l98 -850l285 629l-41 332q39 10 75 16t64 6q78 0 108 -34.5t36 -100.5l80 -831l336 815q29 66 76.5 108.5t121.5 42.5q45 0 78 -7t61 -17l-622 -1356h-234l-90 672l-301 -672h-231z" />
<glyph unicode="X" horiz-adv-x="1101" d="M-53 0l504 694l-258 639q43 20 87 33.5t91 13.5q53 0 89 -26.5t54 -73.5l137 -367l246 344q47 63 92 93t111 30q82 0 145 -41l-489 -661l260 -668q-41 -16 -84 -24.5t-78 -8.5q-80 0 -116 32t-58 93l-123 357l-307 -459h-303z" />
<glyph unicode="Y" horiz-adv-x="1105" d="M174 1333q41 20 84 33.5t88 13.5q106 0 139 -100l144 -473l280 448q41 66 89.5 95.5t113.5 29.5q43 0 75 -11t62 -32l-528 -805l-88 -532h-277l88 530z" />
<glyph unicode="Z" horiz-adv-x="1052" d="M0 0l31 184q78 109 170 228.5t192.5 242.5t204.5 247t209 243h-612q2 66 12 109.5t34.5 69.5t63.5 37t98 11h674q55 0 73 -26q13 -18 13 -46q0 -12 -2 -26l-14 -86q-209 -240 -408.5 -481.5t-382.5 -479.5h459q94 0 133 -32.5t39 -98.5q0 -25 -4 -54.5t-10 -41.5h-973z " />
<glyph unicode="[" horiz-adv-x="735" d="M92 -279l289 1747h487l-34 -202h-228l-221 -1344h227l-32 -201h-488z" />
<glyph unicode="\" horiz-adv-x="753" d="M133 1362q20 10 54 17t69 7q70 0 101.5 -37.5t48.5 -107.5l266 -1241h-246z" />
<glyph unicode="]" horiz-adv-x="735" d="M-51 -279l35 203h227l221 1344h-227l33 200h487l-289 -1747h-487z" />
<glyph unicode="^" horiz-adv-x="1019" d="M104 582l449 784h264l168 -784h-235l-113 532l-295 -532h-238z" />
<glyph unicode="_" horiz-adv-x="978" d="M-8 -205h827v-164h-827v164z" />
<glyph unicode="`" horiz-adv-x="745" d="M170 1393q29 25 73 45t81 20q43 0 69.5 -19.5t48.5 -58.5l133 -241q-23 -16 -58.5 -26.5t-59.5 -10.5q-66 0 -105 53z" />
<glyph unicode="a" horiz-adv-x="1056" d="M94 336q0 127 40 245.5t115 211t179 148.5t234 56q82 0 180 -25.5t186 -78.5l-106 -645q-6 -31 -7 -68q0 -45 7.5 -91t21.5 -81q-35 -20 -74 -28.5t-77 -8.5q-66 0 -105 31.5t-45 103.5q-47 -61 -111.5 -99t-154.5 -38q-84 0 -138.5 28t-86 76t-45 115.5t-13.5 147.5z M371 340q0 -162 110 -162q37 0 68 17.5t55.5 46t41 66.5t22.5 81l63 379q-41 25 -84 25q-53 0 -102 -32t-88 -90.5t-62.5 -142.5t-23.5 -188z" />
<glyph unicode="b" horiz-adv-x="1062" d="M66 66l227 1378q25 4 49.5 6t44.5 2q84 0 117 -40t33 -99q0 -12 -1 -24.5t-4 -24.5l-59 -363q41 41 103.5 68.5t144.5 27.5q88 0 144.5 -31.5t90 -84t47 -121t13.5 -144.5q0 -127 -40 -243.5t-115 -206.5t-182.5 -143.5t-240.5 -53.5q-92 0 -188 21.5t-184 75.5zM352 182 q20 -10 45 -12t54 -2q57 0 107 31.5t89 90t61.5 143.5t22.5 190q0 172 -121 172q-68 0 -121 -54.5t-65 -130.5z" />
<glyph unicode="c" horiz-adv-x="923" d="M94 377q0 125 37 238.5t106.5 197.5t170 134t227.5 50q104 0 168.5 -33.5t97.5 -84.5q25 -41 25 -72v-5q0 -52 -38 -84q-40 -34 -95 -56q-29 68 -68 96t-109 28q-57 0 -104 -33.5t-79 -92t-49 -135t-17 -165.5q2 -94 47 -137t104 -43q66 0 118 35t91 90q57 -23 84 -55.5 t27 -69.5q0 -66 -70 -123q-37 -31 -104.5 -59.5t-178.5 -28.5t-185.5 34t-120.5 90.5t-65.5 130t-19.5 153.5z" />
<glyph unicode="d" horiz-adv-x="1073" d="M94 336q0 133 40 253t112.5 211t173 144t223.5 53q31 0 74 -9t69 -23l80 479q25 4 49.5 6t45.5 2q84 0 116.5 -40t32.5 -99q0 -12 -1 -24.5t-3 -24.5l-168 -1016q-6 -31 -6 -68q0 -45 7 -91t22 -81q-35 -20 -74 -28.5t-78 -8.5q-66 0 -105 31.5t-45 103.5 q-49 -72 -123.5 -104.5t-146.5 -32.5q-84 0 -140 28t-90 76t-49.5 115.5t-15.5 147.5zM379 340q0 -162 117 -162q39 0 71.5 17.5t57 46t42 66.5t23.5 81l64 379q-20 12 -49 18.5t-58 6.5q-115 0 -191.5 -116t-76.5 -337z" />
<glyph unicode="e" horiz-adv-x="985" d="M94 377q0 125 39 238.5t110.5 197.5t176 134t237.5 50q72 0 127.5 -20.5t93 -55t57 -81.5t19.5 -103q0 -115 -51 -185.5t-129 -111.5t-170 -55t-174 -14h-36.5t-33.5 2v-13q0 -47 15.5 -81.5t39 -57t53.5 -34t58 -11.5q84 0 143.5 39t100.5 92q104 -53 104 -129 q0 -43 -24.5 -73.5t-52.5 -51.5q-45 -31 -116 -57.5t-187 -26.5q-113 0 -189 34t-123 90.5t-67.5 130t-20.5 153.5zM379 537q18 -2 31.5 -2h29.5q47 0 94.5 10t86 31.5t62.5 53.5t24 75q0 35 -20.5 60.5t-72.5 25.5q-88 0 -148 -70t-87 -184z" />
<glyph unicode="f" horiz-adv-x="743" d="M-350 -268q0 37 23.5 72.5t72.5 64.5q29 -41 64.5 -62.5t87.5 -21.5q66 0 101.5 50t51.5 145l178 1071q33 223 145.5 320t297.5 97q84 0 146.5 -20.5t99.5 -54.5q47 -43 47 -103q0 -41 -34 -81t-102 -60q-23 49 -57 78.5t-104 29.5t-108 -37.5t-54 -134.5l-19 -110h299 l-34 -211h-299l-129 -784q-31 -195 -127.5 -303.5t-280.5 -108.5q-41 0 -87 8t-86 26.5t-66.5 50.5t-26.5 79z" />
<glyph unicode="g" horiz-adv-x="1067" d="M29 -283q-1 6 -1 11q0 39 24 77q28 43 73 70q39 -53 102.5 -91t155.5 -38q104 0 166.5 66.5t81.5 193.5l12 84q-47 -51 -114.5 -79.5t-139.5 -28.5q-84 0 -140 27.5t-90 75.5t-49.5 115.5t-15.5 147.5q0 127 42 244t119 207t182.5 144t232.5 54q92 0 188 -25.5t184 -78.5 l-135 -817q-47 -283 -180 -412t-344 -129q-100 0 -170 18.5t-127 65.5q-29 23 -42 47.5t-15 50.5zM379 352q0 -162 117 -162q39 0 71.5 17.5t57 46.5t42 66.5t23.5 80.5l62 367q-41 25 -97 25q-49 0 -99 -30t-89 -86t-63.5 -138t-24.5 -187z" />
<glyph unicode="h" horiz-adv-x="1048" d="M55 0l240 1444q25 4 49.5 6t44.5 2q84 0 120 -40t36 -99q0 -12 -1 -24.5t-3 -24.5l-64 -381q47 47 110.5 80.5t160.5 33.5q92 0 149 -41t80 -104q20 -59 20 -131q0 -37 -4 -73t-10 -70l-96 -578h-277l97 578q4 23 6 43t2 41q0 47 -21.5 79.5t-87.5 32.5t-115 -55 t-63 -141l-96 -578h-277z" />
<glyph unicode="i" horiz-adv-x="503" d="M80 125q0 8 1 21.5t3 23.5l131 799q25 4 50.5 6t45.5 2q84 0 120 -40t36 -99q0 -12 -1 -24.5t-3 -25.5l-90 -540q-4 -23 -6 -46.5t-2 -47.5q0 -39 5 -78t15 -68q-35 -20 -68.5 -28.5t-72.5 -8.5q-84 0 -124 33t-40 121zM252 1268q0 94 49 139t117 45q66 0 100.5 -41 t34.5 -88q0 -94 -49 -139t-117 -45q-66 0 -100.5 41t-34.5 88z" />
<glyph unicode="j" horiz-adv-x="505" d="M-221 -340q0 14 2 32.5t6 37.5h20q59 0 100.5 15t76.5 52q29 29 43 74t26 117l164 981q25 4 50.5 6t45.5 2q84 0 120 -40t36 -99q0 -12 -1 -24.5t-3 -25.5l-129 -770q-29 -160 -73 -256t-116 -157q-41 -35 -98 -56.5t-115 -21.5q-63 0 -109 30.5t-46 102.5zM254 1268 q0 94 49 139t117 45q66 0 100.5 -41t34.5 -88q0 -94 -49 -139t-117 -45q-66 0 -100.5 41t-34.5 88z" />
<glyph unicode="k" horiz-adv-x="987" d="M55 0l240 1444q25 4 49.5 6t44.5 2q82 0 117 -40t35 -99q0 -12 -1 -24.5t-3 -24.5l-117 -707q10 33 45 79t74 87l176 195q37 41 72.5 57t84.5 16q53 0 89 -20.5t67 -52.5l-350 -388l160 -305q18 -35 53 -87t88 -87q-29 -29 -81 -50t-112 -21q-35 0 -63.5 6t-53 21.5 t-47 43t-44.5 72.5l-109 209q-10 23 -32.5 67.5t-26.5 92.5l-82 -492h-273z" />
<glyph unicode="l" horiz-adv-x="507" d="M80 125q0 8 1 21.5t3 23.5l211 1274q25 4 50.5 6t45.5 2q84 0 119 -40t35 -99q0 -12 -1 -24.5t-3 -24.5l-168 -1016q-4 -23 -6 -46.5t-2 -47.5q0 -39 5 -78t15 -68q-35 -20 -68.5 -28.5t-72.5 -8.5q-84 0 -124 33t-40 121z" />
<glyph unicode="m" horiz-adv-x="1562" d="M55 0l160 969q47 8 102 8q57 0 92 -24.5t54 -84.5q47 51 114.5 90t170.5 39q88 0 135 -38.5t69 -104.5q31 33 61.5 59.5t67.5 45t83 28.5t106 10q90 -2 144 -43t77 -102q20 -59 20 -131q0 -37 -4 -73t-10 -70l-96 -578h-277l97 578q6 39 6 77q0 49 -19 84t-78 35 q-35 0 -63.5 -18.5t-50 -47t-35.5 -63.5t-18 -67l-97 -578h-276l96 578q4 23 6 43t2 36q0 117 -98 117q-51 0 -101.5 -52t-66.5 -144l-96 -578h-277z" />
<glyph unicode="n" horiz-adv-x="1048" d="M55 0l160 969q47 8 102 8q57 0 92 -24.5t54 -84.5q47 51 114.5 90t170.5 39q92 0 149 -41t80 -104q20 -59 20 -131q0 -37 -4 -73t-10 -70l-96 -578h-277l97 578q4 23 6 43t2 41q0 47 -21.5 79.5t-87.5 32.5t-115 -55t-63 -141l-96 -578h-277z" />
<glyph unicode="o" horiz-adv-x="1054" d="M94 377q0 125 35 238.5t102.5 197.5t167 134t228.5 50q104 0 177 -33.5t118 -90t65.5 -130t20.5 -153.5q0 -121 -32 -233.5t-97.5 -198.5t-166 -137.5t-237.5 -51.5q-109 0 -181.5 34t-116.5 90.5t-63.5 130t-19.5 153.5zM367 365q0 -94 37.5 -140.5t95.5 -46.5 q47 0 90 27.5t74.5 81t50 132.5t18.5 181q0 94 -38 140t-95 46q-47 0 -90 -27.5t-75 -80.5t-50 -132t-18 -181z" />
<glyph unicode="p" horiz-adv-x="1069" d="M-16 -446l231 1415q25 4 50.5 6t45.5 2q49 0 88 -18.5t62 -84.5q41 45 107.5 84t158.5 39q82 0 139.5 -30.5t91 -85t49 -125t15.5 -150.5q0 -127 -36 -242.5t-101.5 -202.5t-157.5 -139.5t-203 -52.5q-66 0 -112.5 18.5t-79.5 41.5l-78 -475h-270zM360 201 q23 -16 46.5 -21.5t68.5 -5.5q51 0 99.5 27.5t84 83t57 137.5t21.5 190q0 92 -36.5 135.5t-94.5 43.5q-35 0 -64.5 -17.5t-53 -45.5t-40 -61.5t-20.5 -66.5z" />
<glyph unicode="q" horiz-adv-x="1069" d="M94 336q0 127 40 245.5t115 211t182.5 148.5t240.5 56q92 0 188 -25.5t184 -78.5l-221 -1339h-270l84 518q-47 -51 -111.5 -77t-136.5 -26q-84 0 -140 28t-90 76t-49.5 115.5t-15.5 147.5zM379 340q0 -162 117 -162q39 0 71.5 17.5t57 46t42 66.5t23.5 81l64 379 q-41 25 -97 25q-57 0 -107 -32t-88 -90.5t-60.5 -142.5t-22.5 -188z" />
<glyph unicode="r" horiz-adv-x="833" d="M55 0l160 969q47 8 102 8q123 0 148 -119q47 51 108.5 92t151.5 41q47 0 78 -13t48 -33.5t24.5 -46.5t7.5 -50q0 -72 -41 -116t-113 -75q-29 106 -127 107q-59 0 -109.5 -49t-66.5 -150l-94 -565h-277z" />
<glyph unicode="s" horiz-adv-x="829" d="M20 141q0 49 25 83t66 63q59 -57 112 -82t113 -25q70 0 97.5 28t27.5 68q0 43 -45 81t-101 77q-33 23 -64.5 47.5t-56 55t-40 71.5t-15.5 94q0 49 20.5 101.5t67.5 95.5t122 70.5t186 27.5q33 0 70.5 -7t74.5 -19.5t68.5 -30.5t52.5 -43q30 -36 30 -77q0 -46 -31.5 -80.5 t-80.5 -51.5q-37 57 -92.5 86t-102.5 29q-51 0 -80.5 -18.5t-29.5 -65.5q0 -25 16 -46.5t44 -43t63.5 -47t74.5 -56.5q72 -59 102.5 -118.5t30.5 -131.5q0 -57 -20 -112t-63.5 -98t-111 -70t-163.5 -27q-115 0 -178.5 17.5t-114.5 50.5q-35 23 -54.5 49.5t-19.5 54.5z" />
<glyph unicode="t" horiz-adv-x="765" d="M92 270q0 25 3 51.5t7 55.5l150 897q25 4 49.5 6t44.5 2q84 0 120 -40t36 -99q0 -12 -1 -24.5t-3 -24.5l-19 -119h262l-34 -211h-263l-65 -402q-4 -20 -6 -37.5t-2 -33.5q0 -106 94 -107q47 0 82 29t63 68q53 -23 76 -54.5t23 -66.5q0 -31 -16.5 -62.5t-53.5 -60.5 q-49 -37 -108.5 -52.5t-133.5 -15.5q-154 0 -229.5 80t-75.5 221z" />
<glyph unicode="u" horiz-adv-x="1054" d="M98 254q0 37 4 72.5t11 70.5l94 572q25 4 50.5 6t45.5 2q84 0 120 -40t36 -99q0 -12 -1 -24.5t-3 -25.5l-66 -391q-6 -35 -6 -71q0 -57 22.5 -102.5t81.5 -45.5q33 0 63 18.5t53.5 48t41 69.5t23.5 83l96 572q25 4 49.5 6t44.5 2q84 0 120 -40t36 -99q0 -12 -1 -24.5 t-3 -25.5l-90 -540q-6 -31 -7 -68q0 -45 7.5 -91t21.5 -81q-35 -20 -74 -28.5t-77 -8.5q-66 0 -105 31.5t-45 103.5q-41 -51 -103.5 -94t-164.5 -43q-106 0 -169 45t-85 109q-20 59 -21 131z" />
<glyph unicode="v" horiz-adv-x="927" d="M98 948q72 29 148 29q43 0 70.5 -15.5t45 -42t25.5 -61.5t12 -74l41 -489l213 496q35 84 86.5 135t128.5 51q41 0 76 -8t57 -21l-464 -948h-291z" />
<glyph unicode="w" horiz-adv-x="1341" d="M98 948q76 29 135 29q61 0 98.5 -26.5t47.5 -90.5l70 -530l174 334l-52 288q41 14 69 19.5t58 5.5q59 0 94 -36t44 -95l67 -496l180 457q37 92 84 131t125 39q41 0 67.5 -7t55.5 -22l-457 -948h-208l-72 410q-57 -104 -108.5 -205t-108.5 -205h-201z" />
<glyph unicode="x" horiz-adv-x="892" d="M-61 0l389 500l-199 446q33 14 71 23.5t79 9.5q68 0 101.5 -29.5t55.5 -85.5l70 -176l112 162q45 63 91.5 95t124.5 32q41 0 72.5 -10.5t60.5 -26.5l-359 -457l201 -477q-57 -26 -124 -26h-5q-68 0 -114 24.5t-68 83.5l-76 197l-201 -285h-282z" />
<glyph unicode="y" horiz-adv-x="940" d="M-143 -313q0 74 96 137q29 -41 67.5 -58.5t73.5 -17.5q37 0 63.5 12.5t48 38t42 63.5t43.5 91l16 37h-57l-154 958q72 29 148 29q43 0 70.5 -15.5t45 -42t25.5 -61.5t12 -74l43 -520l217 527q35 84 86.5 135t128.5 51q41 0 76 -8t58 -21l-502 -1065q-35 -72 -68 -135 t-77 -110.5t-102 -75t-142 -27.5q-66 0 -110 11.5t-71 27.5q-39 25 -58 51.5t-19 61.5z" />
<glyph unicode="z" horiz-adv-x="860" d="M12 0l31 184q121 154 238.5 295.5t255.5 280.5h-408q0 106 39 160.5t147 54.5h467q51 0 79 -20.5t28 -73.5q0 -16 -4 -42t-8 -48q-143 -145 -274.5 -283.5t-248.5 -292.5h287q84 0 117 -32.5t33 -86.5q0 -41 -17 -96h-762z" />
<glyph unicode="{" horiz-adv-x="798" d="M166 530l31 189q86 0 117.5 50t47.5 161l31 192q10 70 30.5 132.5t61.5 110.5t106.5 75.5t168.5 27.5q78 0 112.5 -24.5t34.5 -75.5q0 -35 -14 -63.5t-31 -47.5q-12 4 -29.5 7.5t-35.5 3.5q-47 0 -89 -28t-57 -107l-41 -240q-16 -104 -60 -170t-130 -105q57 -27 81.5 -78 t24.5 -118q0 -37 -6 -76l-45 -268q-2 -12 -3 -26.5t-1 -24.5q0 -55 32 -81t77 -28q18 0 39.5 2t46.5 8q10 -27 18 -49t8 -49q0 -59 -43 -89t-137 -30q-150 0 -225.5 65.5t-75.5 207.5q0 35 6 71l49 301q4 16 4 29.5v28.5q0 55 -25.5 85.5t-78.5 30.5z" />
<glyph unicode="|" horiz-adv-x="475" d="M2 -385l328 2011h233l-327 -2011h-234z" />
<glyph unicode="}" horiz-adv-x="798" d="M-25 -188q0 35 14.5 63.5t30.5 46.5q12 -4 30 -7t36 -3q47 0 89 27.5t56 107.5l41 240q16 104 60.5 169.5t130.5 104.5q-57 27 -82 78t-25 119q0 35 6 76l46 268q2 12 3 26.5t1 24.5q0 55 -32 81t-77 28q-18 0 -39.5 -2.5t-46.5 -8.5q-10 27 -18.5 49.5t-8.5 49.5 q0 59 43 88.5t138 29.5q150 0 225.5 -65.5t75.5 -206.5q0 -35 -6 -72l-50 -301q-4 -16 -4 -29.5v-27.5q0 -55 26 -86t79 -31l-31 -188q-86 0 -117.5 -50.5t-48.5 -160.5l-31 -193q-10 -70 -30.5 -132t-61.5 -110t-107.5 -76t-166.5 -28q-78 0 -113 24.5t-35 76.5z" />
<glyph unicode="~" horiz-adv-x="946" d="M162 993q6 74 26.5 137.5t58.5 110.5t93 74.5t129 27.5q53 0 92 -23.5t72 -51t62.5 -51t64.5 -23.5q43 0 67.5 39t42.5 108h187q-6 -74 -26.5 -137t-58.5 -110t-93.5 -75t-128.5 -28q-53 0 -95.5 23.5t-76 51.5t-62.5 51.5t-57 23.5q-43 0 -67.5 -39t-43.5 -109h-186z " />
<glyph unicode="&#xa1;" horiz-adv-x="536" d="M23 -297q0 12 1 24.5t3 24.5l133 803q25 4 50.5 6t45.5 2q84 0 119 -40t35 -99q0 -12 -1 -24.5t-3 -24.5l-134 -803q-25 -4 -50 -6t-46 -2q-84 0 -118.5 40t-34.5 99zM184 786q0 96 50 142.5t120 46.5q66 0 103 -42t37 -91q0 -96 -50.5 -142.5t-119.5 -46.5 q-66 0 -103 42t-37 91z" />
<glyph unicode="&#xa2;" d="M221 590q0 98 22.5 187t65.5 162t106.5 127t147.5 85l41 250h125l-37 -219q18 2 37 3t37 1h22l37 215h125l-41 -240q43 -16 73 -40.5t50 -53.5q25 -41 25 -72q2 -55 -37 -85.5t-94 -53.5q-29 68 -69 96.5t-109 28.5q-61 0 -110.5 -30.5t-82.5 -84t-49.5 -127 t-16.5 -161.5q2 -90 51.5 -134.5t108.5 -44.5q66 0 119 35t92 90q57 -23 83 -56.5t26 -70.5q0 -66 -70 -123q-23 -16 -52.5 -33.5t-70.5 -31.5l-39 -244h-125l37 221h-33h-31.5t-31.5 2l-37 -223h-125l41 254q-57 25 -97 64t-65.5 88t-37 104t-11.5 115z" />
<glyph unicode="&#xa3;" d="M160 563l30 195h125l29 176q16 94 50 175t91.5 140.5t142.5 92t203 32.5q117 0 183.5 -34.5t91.5 -65.5q23 -29 31 -52.5t8 -47.5q0 -41 -33 -81t-100 -61q-29 51 -75 85t-114 34q-98 0 -143 -58.5t-62 -154.5l-28 -180h360l-30 -195h-361l-57 -346h332q94 0 133 -32.5 t39 -98.5q0 -25 -4.5 -49.5t-10.5 -36.5h-801l95 563h-125z" />
<glyph unicode="&#xa4;" d="M66 301l153 145q-37 53 -55.5 119t-18.5 131q0 139 72 248l-145 135l137 127l135 -127q113 74 256 74q141 0 262 -78l146 142l137 -130l-156 -145q35 -53 50.5 -114.5t15.5 -127.5q0 -68 -17.5 -132t-52.5 -117l156 -150l-133 -129l-154 147q-115 -74 -256 -73 q-135 0 -248 69l-151 -143zM332 698q0 -123 71.5 -203.5t196.5 -80.5q129 0 198.5 80.5t69.5 203.5t-69.5 205t-198.5 82t-198.5 -81t-69.5 -206z" />
<glyph unicode="&#xa5;" d="M139 291l21 129h250l24 151h-252l21 129h186l-207 605q41 20 84 33.5t88 13.5q53 0 83 -27t44 -74l127 -428l256 406q41 66 91.5 95.5t115.5 29.5q43 0 75 -11.5t62 -31.5l-413 -611h194l-20 -129h-260l-25 -151h262l-20 -129h-262l-48 -291h-276l47 291h-248z" />
<glyph unicode="&#xa6;" horiz-adv-x="475" d="M2 -385l135 825h234l-135 -825h-234zM205 858l125 768h233l-125 -768h-233z" />
<glyph unicode="&#xa7;" horiz-adv-x="980" d="M51 -10q0 41 30 81t95 60q41 -57 95.5 -89t125.5 -32q61 0 100.5 26.5t39.5 82.5q0 33 -14.5 58.5t-41 48t-63.5 44t-82 49.5q-94 57 -153.5 122t-59.5 167q0 86 42 159t134 138q-18 29 -29.5 67t-11.5 97q0 82 32 143.5t86 103.5t128 62.5t158 20.5q72 0 146.5 -20.5 t127.5 -69.5q43 -43 43 -99q0 -41 -28.5 -78.5t-94.5 -58.5q-41 57 -86 88t-117 31q-59 0 -102 -26.5t-43 -86.5q0 -33 13.5 -56.5t39 -44t62 -42t84.5 -49.5q47 -29 85.5 -56.5t67.5 -60.5t44.5 -73t15.5 -91q0 -90 -41 -162.5t-134 -142.5q20 -31 33 -73t13 -95 q0 -82 -32 -144.5t-86.5 -104.5t-127 -63.5t-156.5 -21.5q-72 0 -157 21.5t-138 70.5q-43 43 -43 99zM354 668q0 -39 17.5 -68t46 -53.5t66.5 -47t79 -48.5l47 -33q35 29 55.5 60.5t20.5 68.5q0 39 -17.5 66.5t-46 50t-66.5 44t-79 48.5q-16 10 -28.5 18t-26.5 17 q-68 -55 -68 -123z" />
<glyph unicode="&#xa8;" horiz-adv-x="724" d="M137 1251q0 80 41 119t101 39q55 0 84.5 -35t29.5 -76q0 -80 -41 -118.5t-100 -38.5q-55 0 -85 34.5t-30 75.5zM526 1251q0 80 41 119t101 39q55 0 84.5 -35t29.5 -76q0 -80 -41 -118.5t-100 -38.5q-55 0 -85 34.5t-30 75.5z" />
<glyph unicode="&#xa9;" horiz-adv-x="1675" d="M176 666q0 150 49 283.5t141.5 234t222.5 160t294 59.5q162 0 293 -59.5t223 -160t141 -234t49 -283.5q0 -152 -50 -286t-142 -235.5t-223.5 -161t-292.5 -59.5q-166 0 -297 58.5t-222.5 159t-138.5 235.5t-47 289zM299 666q0 -123 39 -237t113.5 -201t184 -139 t249.5 -52q135 0 243.5 52t184.5 139t116.5 201t40.5 237t-40.5 235.5t-116.5 199.5t-184.5 138t-243.5 51t-244 -51t-184.5 -138t-116.5 -200t-41 -235zM473 674q0 119 37 207t98.5 146t140 87t162.5 29q86 0 143.5 -17.5t94.5 -42.5q41 -27 55.5 -49t14.5 -45 q0 -31 -22.5 -61.5t-49.5 -59.5q-43 49 -93 77t-128 28q-123 0 -178.5 -82t-55.5 -213q0 -61 12.5 -115.5t41 -94.5t74.5 -63.5t114 -23.5q43 0 76.5 10t59.5 24.5t44.5 31t28.5 26.5q8 -10 20.5 -24.5t23.5 -31t19 -32.5t8 -29q0 -18 -8.5 -33.5t-31.5 -33.5 q-25 -20 -89.5 -51t-171.5 -31q-90 0 -169.5 27.5t-140 85t-95.5 145.5t-35 209z" />
<glyph unicode="&#xaa;" horiz-adv-x="884" d="M172 891q0 98 32 189t91 162t143 114t187 43q29 0 65.5 -5t74.5 -15.5t77 -26t71 -35.5l-82 -492q-6 -41 -1.5 -94t20.5 -90q-27 -16 -59.5 -22.5t-61.5 -6.5q-53 0 -83 25t-34 78q-37 -47 -90 -76t-123 -29q-61 0 -104 21.5t-70.5 59.5t-40 89t-12.5 111zM391 909 q0 -123 90 -123q57 0 99.5 48.5t52.5 113.5l43 264q-31 19 -68 19q-92 0 -154.5 -80t-62.5 -242z" />
<glyph unicode="&#xab;" horiz-adv-x="1030" d="M115 545q0 51 29.5 96t74.5 82l326 264q20 -35 30.5 -65.5t10.5 -65.5q0 -80 -62 -135l-170 -156l123 -194q25 -41 25 -80q0 -49 -29 -87t-70 -67l-239 287q-49 57 -49 121zM572 545q0 51 29.5 96t74.5 82l326 264q20 -35 30.5 -65.5t10.5 -65.5q0 -80 -62 -135 l-170 -156l123 -194q25 -41 25 -80q0 -49 -29 -87t-70 -67l-239 287q-49 57 -49 121z" />
<glyph unicode="&#xac;" d="M139 621l39 231h899l-96 -576h-240l58 345h-660z" />
<glyph unicode="&#xad;" horiz-adv-x="862" d="M137 557q0 23 4 51.5t15 55.5h450q84 0 118 -39t32 -93q0 -23 -4 -52t-15 -56h-450q-84 0 -118 40t-32 93z" />
<glyph unicode="&#xae;" horiz-adv-x="1675" d="M176 666q0 150 49 283.5t141.5 234t222.5 160t294 59.5q162 0 293 -59.5t223 -160t141 -234t49 -283.5q0 -152 -50 -286t-142 -236.5t-223.5 -162t-292.5 -59.5q-170 0 -301 59.5t-220.5 162t-136.5 236.5t-47 286zM299 666q0 -123 39 -237t112.5 -201t182 -139 t248.5 -52q135 0 244.5 52t185 139t116.5 201t41 237t-41 235.5t-116.5 199.5t-184 138t-243.5 51t-244 -51t-183.5 -138t-115.5 -200t-41 -235zM604 254v858q55 4 131 8t131 4q180 0 263 -72.5t83 -189.5q0 -53 -14 -94t-38.5 -71.5t-56.5 -53t-65 -37.5l213 -340 q-61 -29 -104 -28q-37 0 -70 16t-55 53l-166 268h-78v-321h-174zM778 709h96q78 0 115 37.5t37 103.5q0 135 -162 135q-29 0 -49 -1t-37 -3v-272z" />
<glyph unicode="&#xaf;" horiz-adv-x="745" d="M70 1262q0 16 3 38.5t11 42.5h481q61 0 87 -28.5t24 -69.5q0 -16 -3 -38.5t-11 -43.5h-482q-61 0 -86.5 29t-23.5 70z" />
<glyph unicode="&#xb0;" horiz-adv-x="808" d="M188 1143q0 57 20.5 109.5t58.5 90t90.5 60t117.5 22.5q131 0 209 -79.5t78 -202.5q0 -59 -20.5 -110.5t-58.5 -89.5t-91 -60.5t-117 -22.5q-66 0 -119 22.5t-90 60.5t-57.5 89t-20.5 111zM326 1143q0 -66 42 -113t107 -47q68 0 112 47t44 113q0 68 -44 114t-112 46 q-66 0 -107.5 -46.5t-41.5 -113.5z" />
<glyph unicode="&#xb1;" d="M84 0l37 223h289l59 352h-319l38 224h320l57 352h240l-57 -352h319l-39 -224h-319l-60 -352h295l-37 -223h-823z" />
<glyph unicode="&#xb2;" horiz-adv-x="757" d="M119 616l24 132q35 29 86.5 68.5t104.5 86.5q39 33 73.5 67t62.5 67.5t44 65.5t16 60q0 39 -21.5 62.5t-64.5 23.5q-49 0 -88 -27.5t-65 -56.5q-39 16 -58.5 37t-19.5 51q0 16 9 38t32 38q31 29 90 53.5t145 24.5q109 0 173.5 -56.5t64.5 -158.5q0 -78 -31.5 -142.5 t-103.5 -136.5q-16 -14 -39 -34.5t-48.5 -41t-49 -39t-37.5 -30.5h153q63 0 90 -23.5t27 -66.5q0 -12 -5 -30.5t-9 -31.5h-555z" />
<glyph unicode="&#xb3;" horiz-adv-x="757" d="M111 719q0 29 20.5 57.5t54.5 50.5q45 -45 85 -63.5t100 -18.5q47 0 84 24t37 77q0 43 -27 69.5t-80 26.5h-68l25 139h70q47 0 87 22.5t40 82.5q0 29 -23.5 50t-71.5 21q-47 0 -93 -26.5t-68 -54.5q-76 33 -76 92q0 36 41 69q35 29 93 49.5t136 20.5q61 0 108.5 -17.5 t80 -45t49 -61.5t16.5 -69q0 -76 -39 -124t-98 -76q53 -29 74.5 -72t21.5 -92q0 -59 -23.5 -107.5t-66.5 -82t-101.5 -51t-127.5 -17.5q-72 0 -120 13t-77 30q-35 20 -49 40.5t-14 43.5z" />
<glyph unicode="&#xb4;" horiz-adv-x="745" d="M137 1143l187 235q31 41 62.5 60.5t84.5 19.5q37 0 77 -22.5t60 -46.5l-235 -234q-25 -25 -55.5 -39t-65.5 -14q-29 0 -63.5 12t-51.5 29z" />
<glyph unicode="&#xb5;" horiz-adv-x="1153" d="M23 -387l223 1362h276l-94 -565q-6 -37 -6 -66q0 -145 119 -145q45 0 75.5 17t52 47t35 70t21.5 85l92 557h277l-115 -690q-4 -16 -6 -31.5t-2 -26.5q0 -51 41 -51q35 0 73 14l11 -167q-39 -18 -86 -30.5t-88 -12.5q-66 0 -103 23.5t-57 82.5q-41 -47 -100.5 -76.5 t-141.5 -29.5q-59 0 -102 20t-66 55l-71 -442h-258z" />
<glyph unicode="&#xb6;" horiz-adv-x="1110" d="M154 877q0 125 41 218t107.5 155.5t152.5 93t176 30.5h418q51 0 75.5 -26.5t24.5 -71.5q0 -20 -2 -31l-246 -1487h-188l239 1448h-159l-240 -1448h-188l127 764h-9q-152 0 -240.5 95.5t-88.5 259.5z" />
<glyph unicode="&#xb7;" horiz-adv-x="585" d="M184 641q0 94 49.5 139t116.5 45q66 0 100.5 -41t34.5 -88q0 -94 -49 -139t-117 -45q-66 0 -100.5 41t-34.5 88z" />
<glyph unicode="&#xb8;" horiz-adv-x="745" d="M203 -383q0 37 26 74q18 -10 38 -12.5t36 -2.5q33 0 48.5 17.5t15.5 40.5q0 18 -8.5 32.5t-17.5 27.5t-16.5 28.5t-7.5 36.5q0 43 25 82t53 63h144q-23 -20 -45.5 -46t-22.5 -60q0 -18 11.5 -33t24.5 -32t24.5 -40.5t11.5 -58.5q0 -53 -21.5 -91t-55.5 -61.5t-76 -35 t-85 -11.5q-55 0 -78.5 24.5t-23.5 57.5z" />
<glyph unicode="&#xb9;" horiz-adv-x="757" d="M205 1163q0 29 15.5 53.5t49.5 40.5l224 113q29 16 56.5 26.5t59.5 10.5q33 0 51.5 -9t34.5 -24l-127 -760h-196l90 545l-209 -100q-23 29 -36 52.5t-13 51.5z" />
<glyph unicode="&#xba;" horiz-adv-x="872" d="M178 926q0 96 29 182t83 150.5t132 102.5t178 38q82 0 139.5 -26.5t93 -71t52 -101.5t16.5 -119q0 -92 -27.5 -178t-81 -150.5t-131.5 -103.5t-180 -39q-82 0 -139 27t-94 71t-53.5 100t-16.5 118zM403 920q0 -55 26 -93.5t75 -38.5q70 0 119 77t51 225q0 55 -25.5 94 t-73.5 39q-72 0 -121 -78t-51 -225z" />
<glyph unicode="&#xbb;" horiz-adv-x="1030" d="M49 268q0 80 62 135l170 156l-123 195q-25 39 -25 80q0 49 28.5 86.5t69.5 66.5l240 -287q49 -57 49 -120q0 -51 -29.5 -96.5t-74.5 -82.5l-326 -264q-20 35 -30.5 65.5t-10.5 65.5zM506 268q0 80 62 135l170 156l-123 195q-25 39 -25 80q0 49 28.5 86.5t69.5 66.5 l240 -287q49 -57 49 -120q0 -51 -29.5 -96.5t-74.5 -82.5l-326 -264q-20 35 -30.5 65.5t-10.5 65.5z" />
<glyph unicode="&#xbc;" horiz-adv-x="1683" d="M164 1163q0 29 15.5 53.5t49.5 40.5l224 113q29 16 56.5 26.5t59.5 10.5q33 0 51.5 -9t34.5 -24l-127 -760h-196l90 545l-209 -100q-23 29 -36 52.5t-13 51.5zM312 0l831 1284q35 53 72 84t98 31q68 0 117 -23l-893 -1376h-225zM952 150l23 125l399 452q23 29 50.5 48.5 t74.5 19.5q49 0 96 -25l-82 -483h33q35 0 47 -17.5t12 -41.5q0 -20 -6 -42t-16 -36h-92l-25 -148h-190l24 148h-348zM1128 289h197l47 270z" />
<glyph unicode="&#xbd;" horiz-adv-x="1683" d="M164 1163q0 29 15.5 53.5t49.5 40.5l224 113q29 16 56.5 26.5t59.5 10.5q33 0 51.5 -9t34.5 -24l-127 -760h-196l90 545l-209 -100q-23 29 -36 52.5t-13 51.5zM289 0l831 1284q35 53 72 84t98 31q68 0 117 -23l-893 -1376h-225zM1022 4l24 132q35 29 86.5 68.5 t104.5 86.5q39 33 73.5 67t62.5 67.5t44 65.5t16 60q0 39 -21.5 62.5t-64.5 23.5q-49 0 -88 -27.5t-65 -56.5q-39 16 -58.5 37t-19.5 51q0 16 9 38t32 38q31 29 90 53.5t145 24.5q109 0 173.5 -56.5t64.5 -158.5q0 -78 -31.5 -142.5t-103.5 -136.5q-16 -14 -39 -34.5 t-48.5 -41t-49 -39t-37.5 -30.5h153q63 0 90 -23.5t27 -66.5q0 -12 -5 -30.5t-9 -31.5h-555z" />
<glyph unicode="&#xbe;" horiz-adv-x="1683" d="M111 719q0 29 20.5 57.5t54.5 50.5q45 -45 85 -63.5t100 -18.5q47 0 84 24t37 77q0 43 -27 69.5t-80 26.5h-68l25 139h70q47 0 87 22.5t40 82.5q0 29 -23.5 50t-71.5 21q-47 0 -93 -26.5t-68 -54.5q-76 33 -76 92q0 36 41 69q35 29 93 49.5t136 20.5q61 0 108.5 -17.5 t80 -45t49 -61.5t16.5 -69q0 -76 -39 -124t-98 -76q53 -29 74.5 -72t21.5 -92q0 -59 -23.5 -107.5t-66.5 -82t-101.5 -51t-127.5 -17.5q-72 0 -120 13t-77 30q-35 20 -49 40.5t-14 43.5zM357 0l831 1284q35 53 72 84t98 31q68 0 117 -23l-893 -1376h-225zM973 150l23 125 l399 452q23 29 50.5 48.5t74.5 19.5q49 0 96 -25l-82 -483h33q35 0 47 -17.5t12 -41.5q0 -20 -6 -42t-16 -36h-92l-25 -148h-190l24 148h-348zM1149 289h197l47 270z" />
<glyph unicode="&#xbf;" horiz-adv-x="872" d="M2 -137q0 72 21.5 131t53.5 107.5t69.5 85t70.5 65.5q41 35 76 64.5t62.5 60.5t45 69.5t23.5 92.5q18 6 40.5 8t39.5 2q66 0 93.5 -27.5t27.5 -85.5q0 -27 -6.5 -52.5t-23.5 -54t-47 -61t-77 -73.5l-74 -62t-66.5 -65.5t-48 -74.5t-18.5 -89q1 -125 144 -125 q78 0 140 33.5t116 93.5q47 -23 70.5 -58.5t23.5 -74.5q0 -59 -51 -109q-59 -53 -146.5 -85t-198.5 -32q-78 0 -143 20.5t-113.5 60.5t-76 99.5t-27.5 135.5zM430 784q0 96 50 142.5t120 46.5q66 0 102.5 -42t36.5 -91q0 -96 -50 -142.5t-120 -46.5q-66 0 -102.5 42 t-36.5 91z" />
<glyph unicode="&#xc0;" horiz-adv-x="1224" d="M-20 0l638 1348q27 12 62 22t70 10q70 0 113.5 -30.5t58.5 -106.5l221 -1243h-283l-43 293h-428l-125 -293h-284zM481 514h303l-71 541zM495 1686q35 47 76 76.5t82 29.5t90 -43l213 -190q-35 -33 -68.5 -52.5t-72.5 -19.5q-41 0 -84 31z" />
<glyph unicode="&#xc1;" horiz-adv-x="1224" d="M-20 0l638 1348q27 12 62 22t70 10q70 0 113.5 -30.5t58.5 -106.5l221 -1243h-283l-43 293h-428l-125 -293h-284zM481 514h303l-71 541zM559 1559l232 186q23 18 51 32.5t57 14.5q49 0 83 -34t50 -75l-258 -163q-23 -14 -47 -23.5t-59 -9.5q-39 0 -65.5 23.5t-43.5 48.5z " />
<glyph unicode="&#xc2;" horiz-adv-x="1224" d="M-20 0l638 1348q27 12 62 22t70 10q70 0 113.5 -30.5t58.5 -106.5l221 -1243h-283l-43 293h-428l-125 -293h-284zM457 1518l209 219q29 29 61.5 44t79.5 15q49 0 75.5 -16.5t45.5 -48.5l121 -220q-23 -12 -51.5 -20t-53.5 -8q-29 0 -54.5 12t-47.5 43l-64 92l-114 -106 q-25 -23 -51.5 -31t-55.5 -8t-56.5 9t-43.5 24zM481 514h303l-71 541z" />
<glyph unicode="&#xc3;" horiz-adv-x="1224" d="M-20 0l638 1348q27 12 62 22t70 10q70 0 113.5 -30.5t58.5 -106.5l221 -1243h-283l-43 293h-428l-125 -293h-284zM418 1608q0 33 19.5 59.5t51 46t69.5 30.5t75 11q49 0 83 -11t59.5 -24.5t47 -25t48.5 -11.5q35 0 64.5 17.5t68.5 71.5q49 -25 62 -51.5t13 -59.5 t-18 -59.5t-49 -46t-69 -31t-77 -11.5q-49 0 -81.5 11.5t-57 25t-46 24.5t-50.5 11q-31 0 -65.5 -15.5t-73.5 -68.5q-47 29 -60.5 51.5t-13.5 55.5zM481 514h303l-71 541z" />
<glyph unicode="&#xc4;" horiz-adv-x="1224" d="M-20 0l638 1348q27 12 62 22t70 10q70 0 113.5 -30.5t58.5 -106.5l221 -1243h-283l-43 293h-428l-125 -293h-284zM463 1606q0 80 41 118.5t100 38.5q55 0 85 -34.5t30 -75.5q0 -80 -41 -119t-100 -39q-55 0 -85 35t-30 76zM481 514h303l-71 541zM852 1606q0 80 41 118.5 t101 38.5q55 0 84.5 -34.5t29.5 -75.5q0 -80 -41 -119t-100 -39q-55 0 -85 35t-30 76z" />
<glyph unicode="&#xc5;" horiz-adv-x="1224" d="M-20 0l638 1348l13 6q-43 33 -65.5 81t-22.5 107q0 47 15 90t45 75t73 51.5t96 19.5q51 0 94 -18.5t72 -51.5t45 -75t16 -89q0 -68 -31.5 -124t-86.5 -87q29 -33 41 -90l221 -1243h-283l-43 293h-428l-125 -293h-284zM481 514h303l-71 541zM662 1544q0 -51 28.5 -89 t81.5 -38q49 0 79 38t30 87q0 51 -30 88t-79 37q-51 0 -80.5 -37t-29.5 -86z" />
<glyph unicode="&#xc6;" horiz-adv-x="1738" d="M-41 0l860 1260q43 63 99.5 87.5t148.5 24.5h758q-2 -61 -12.5 -103t-34 -67.5t-60.5 -37t-92 -11.5h-344l-55 -338h387l-37 -219h-387l-62 -377h351q94 0 133 -33.5t39 -99.5q0 -25 -4.5 -49.5t-10.5 -36.5h-821l55 342h-399l-227 -342h-285zM602 541h301l103 608z" />
<glyph unicode="&#xc7;" horiz-adv-x="1204" d="M133 537q0 150 43 303t130 277t222.5 203t319.5 79q135 0 224 -49.5t132 -114.5q14 -23 19.5 -46.5t5.5 -45.5q0 -59 -38 -99t-110 -57q-37 86 -96 135t-166 49q-84 0 -156.5 -43t-126 -126.5t-85 -207.5t-31.5 -286q0 -66 16.5 -123t48 -99t77.5 -66.5t106 -24.5 q59 0 110 15t95.5 40.5t81 58.5t65.5 66q47 -35 72.5 -71t25.5 -71q0 -57 -31.5 -97t-89.5 -75q-53 -35 -129.5 -60.5t-169.5 -33.5q-31 -31 -30 -69q0 -18 11 -33t24.5 -32t24.5 -40.5t11 -58.5q0 -53 -21.5 -91t-55 -61.5t-75.5 -35t-85 -11.5q-55 0 -79 24.5t-24 57.5 q0 37 27 74q18 -10 37.5 -12.5t36.5 -2.5q33 0 48 17.5t15 40.5q0 18 -8 32.5t-17.5 27.5t-16.5 28.5t-7 36.5q0 31 12.5 59.5t30.5 52.5q-109 12 -188.5 59.5t-132 122t-78 172t-25.5 212.5z" />
<glyph unicode="&#xc8;" horiz-adv-x="987" d="M63 0l228 1372h794q-2 -61 -12 -103t-33.5 -67.5t-60.5 -37t-92 -11.5h-357l-55 -338h399l-36 -219h-400l-61 -377h362q94 0 133 -33.5t39 -99.5q0 -25 -4 -49.5t-10 -36.5h-834zM442 1686q35 47 76 76.5t82 29.5t90 -43l213 -190q-35 -33 -68.5 -52.5t-72.5 -19.5 q-41 0 -84 31z" />
<glyph unicode="&#xc9;" horiz-adv-x="987" d="M63 0l228 1372h794q-2 -61 -12 -103t-33.5 -67.5t-60.5 -37t-92 -11.5h-357l-55 -338h399l-36 -219h-400l-61 -377h362q94 0 133 -33.5t39 -99.5q0 -25 -4 -49.5t-10 -36.5h-834zM500 1559l232 186q23 18 51 32.5t57 14.5q49 0 83 -34t50 -75l-258 -163 q-23 -14 -47 -23.5t-59 -9.5q-39 0 -65.5 23.5t-43.5 48.5z" />
<glyph unicode="&#xca;" horiz-adv-x="987" d="M63 0l228 1372h794q-2 -61 -12 -103t-33.5 -67.5t-60.5 -37t-92 -11.5h-357l-55 -338h399l-36 -219h-400l-61 -377h362q94 0 133 -33.5t39 -99.5q0 -25 -4 -49.5t-10 -36.5h-834zM404 1518l209 219q29 29 61.5 44t79.5 15q49 0 75.5 -16.5t45.5 -48.5l121 -220 q-23 -12 -51.5 -20t-53.5 -8q-29 0 -54.5 12t-47.5 43l-64 92l-114 -106q-25 -23 -51.5 -31t-55.5 -8t-56.5 9t-43.5 24z" />
<glyph unicode="&#xcb;" horiz-adv-x="987" d="M63 0l228 1372h794q-2 -61 -12 -103t-33.5 -67.5t-60.5 -37t-92 -11.5h-357l-55 -338h399l-36 -219h-400l-61 -377h362q94 0 133 -33.5t39 -99.5q0 -25 -4 -49.5t-10 -36.5h-834zM393 1606q0 80 41 118.5t100 38.5q55 0 85 -34.5t30 -75.5q0 -80 -41 -119t-100 -39 q-55 0 -85 35t-30 76zM782 1606q0 80 41 118.5t101 38.5q55 0 84.5 -34.5t29.5 -75.5q0 -80 -41 -119t-100 -39q-55 0 -85 35t-30 76z" />
<glyph unicode="&#xcc;" horiz-adv-x="518" d="M63 0l228 1372q25 4 50.5 6t45.5 2q84 0 119 -40t35 -99q0 -12 -1 -24.5t-3 -24.5l-197 -1192h-277zM159 1686q35 47 76 76.5t82 29.5t90 -43l213 -190q-35 -33 -68.5 -52.5t-72.5 -19.5q-41 0 -84 31z" />
<glyph unicode="&#xcd;" horiz-adv-x="518" d="M63 0l228 1372q25 4 50.5 6t45.5 2q84 0 119 -40t35 -99q0 -12 -1 -24.5t-3 -24.5l-197 -1192h-277zM282 1559l232 186q23 18 51 32.5t57 14.5q49 0 83 -34t50 -75l-258 -163q-23 -14 -47 -23.5t-59 -9.5q-39 0 -65.5 23.5t-43.5 48.5z" />
<glyph unicode="&#xce;" horiz-adv-x="518" d="M63 0l228 1372q25 4 50.5 6t45.5 2q84 0 119 -40t35 -99q0 -12 -1 -24.5t-3 -24.5l-197 -1192h-277zM113 1518l209 219q29 29 61.5 44t79.5 15q49 0 75.5 -16.5t45.5 -48.5l121 -220q-23 -12 -51.5 -20t-53.5 -8q-29 0 -54.5 12t-47.5 43l-64 92l-114 -106 q-25 -23 -51.5 -31t-55.5 -8t-56.5 9t-43.5 24z" />
<glyph unicode="&#xcf;" horiz-adv-x="518" d="M63 0l228 1372q25 4 50.5 6t45.5 2q84 0 119 -40t35 -99q0 -12 -1 -24.5t-3 -24.5l-197 -1192h-277zM133 1606q0 80 41 118.5t100 38.5q55 0 85 -34.5t30 -75.5q0 -80 -41 -119t-100 -39q-55 0 -85 35t-30 76zM522 1606q0 80 41 118.5t101 38.5q55 0 84.5 -34.5 t29.5 -75.5q0 -80 -41 -119t-100 -39q-55 0 -85 35t-30 76z" />
<glyph unicode="&#xd0;" horiz-adv-x="1259" d="M43 614l29 181h123l94 563q131 18 222 22t151 4q154 0 263 -40.5t177.5 -114.5t100.5 -175.5t32 -219.5q0 -154 -41 -303.5t-135 -267.5t-244.5 -190.5t-368.5 -72.5h-383l103 614h-123zM375 217h117q115 0 200.5 49t142 135t85 203t28.5 252q0 63 -18.5 120.5t-53 98.5 t-85.5 65.5t-117 24.5q-98 0 -144 -6l-61 -364h246l-31 -181h-244z" />
<glyph unicode="&#xd1;" horiz-adv-x="1239" d="M63 0l226 1366q23 4 52.5 9t64.5 5q72 0 106.5 -33.5t58.5 -93.5l310 -786l151 905q23 4 45.5 6t40.5 2q80 0 112 -40t32 -99q0 -12 -1 -24.5t-4 -24.5l-196 -1192h-230l-366 907l-148 -907h-254zM428 1608q0 33 19.5 59.5t51 46t69.5 30.5t75 11q49 0 83 -11t59.5 -24.5 t47 -25t48.5 -11.5q35 0 64.5 17.5t68.5 71.5q49 -25 62 -51.5t13 -59.5t-18 -59.5t-49 -46t-69 -31t-77 -11.5q-49 0 -81.5 11.5t-57 25t-46 24.5t-50.5 11q-31 0 -65.5 -15.5t-73.5 -68.5q-47 29 -60.5 51.5t-13.5 55.5z" />
<glyph unicode="&#xd2;" horiz-adv-x="1341" d="M133 512q0 156 42 314.5t129 285.5t219.5 207t312.5 80q131 0 222 -45t148.5 -120t84 -174t26.5 -208q0 -158 -41 -315.5t-126 -284.5t-215 -207t-310 -80q-133 0 -226.5 45t-153 120t-86 174t-26.5 208zM420 483q0 -129 54 -208.5t175 -79.5q74 0 141.5 48t121 137 t85 216t31.5 285q0 127 -54 208.5t-169 81.5q-80 0 -150.5 -47t-123 -136t-82 -216t-29.5 -289zM602 1686q35 47 76 76.5t82 29.5t90 -43l213 -190q-35 -33 -68.5 -52.5t-72.5 -19.5q-41 0 -84 31z" />
<glyph unicode="&#xd3;" horiz-adv-x="1341" d="M133 512q0 156 42 314.5t129 285.5t219.5 207t312.5 80q131 0 222 -45t148.5 -120t84 -174t26.5 -208q0 -158 -41 -315.5t-126 -284.5t-215 -207t-310 -80q-133 0 -226.5 45t-153 120t-86 174t-26.5 208zM420 483q0 -129 54 -208.5t175 -79.5q74 0 141.5 48t121 137 t85 216t31.5 285q0 127 -54 208.5t-169 81.5q-80 0 -150.5 -47t-123 -136t-82 -216t-29.5 -289zM678 1559l232 186q23 18 51 32.5t57 14.5q49 0 83 -34t50 -75l-258 -163q-23 -14 -47 -23.5t-59 -9.5q-39 0 -65.5 23.5t-43.5 48.5z" />
<glyph unicode="&#xd4;" horiz-adv-x="1341" d="M133 512q0 156 42 314.5t129 285.5t219.5 207t312.5 80q131 0 222 -45t148.5 -120t84 -174t26.5 -208q0 -158 -41 -315.5t-126 -284.5t-215 -207t-310 -80q-133 0 -226.5 45t-153 120t-86 174t-26.5 208zM420 483q0 -129 54 -208.5t175 -79.5q74 0 141.5 48t121 137 t85 216t31.5 285q0 127 -54 208.5t-169 81.5q-80 0 -150.5 -47t-123 -136t-82 -216t-29.5 -289zM539 1518l209 219q29 29 61.5 44t79.5 15q49 0 75.5 -16.5t45.5 -48.5l121 -220q-23 -12 -51.5 -20t-53.5 -8q-29 0 -54.5 12t-47.5 43l-64 92l-114 -106q-25 -23 -51.5 -31 t-55.5 -8t-56.5 9t-43.5 24z" />
<glyph unicode="&#xd5;" horiz-adv-x="1341" d="M133 512q0 156 42 314.5t129 285.5t219.5 207t312.5 80q131 0 222 -45t148.5 -120t84 -174t26.5 -208q0 -158 -41 -315.5t-126 -284.5t-215 -207t-310 -80q-133 0 -226.5 45t-153 120t-86 174t-26.5 208zM420 483q0 -129 54 -208.5t175 -79.5q74 0 141.5 48t121 137 t85 216t31.5 285q0 127 -54 208.5t-169 81.5q-80 0 -150.5 -47t-123 -136t-82 -216t-29.5 -289zM535 1608q0 33 19.5 59.5t51 46t69.5 30.5t75 11q49 0 83 -11t59.5 -24.5t47 -25t48.5 -11.5q35 0 64.5 17.5t68.5 71.5q49 -25 62 -51.5t13 -59.5t-18 -59.5t-49 -46t-69 -31 t-77 -11.5q-49 0 -81.5 11.5t-57 25t-46 24.5t-50.5 11q-31 0 -65.5 -15.5t-73.5 -68.5q-47 29 -60.5 51.5t-13.5 55.5z" />
<glyph unicode="&#xd6;" horiz-adv-x="1341" d="M133 512q0 156 42 314.5t129 285.5t219.5 207t312.5 80q131 0 222 -45t148.5 -120t84 -174t26.5 -208q0 -158 -41 -315.5t-126 -284.5t-215 -207t-310 -80q-133 0 -226.5 45t-153 120t-86 174t-26.5 208zM420 483q0 -129 54 -208.5t175 -79.5q74 0 141.5 48t121 137 t85 216t31.5 285q0 127 -54 208.5t-169 81.5q-80 0 -150.5 -47t-123 -136t-82 -216t-29.5 -289zM534 1606q0 80 41 118.5t100 38.5q55 0 85 -34.5t30 -75.5q0 -80 -41 -119t-100 -39q-55 0 -85 35t-30 76zM923 1606q0 80 41 118.5t101 38.5q55 0 84.5 -34.5t29.5 -75.5 q0 -80 -41 -119t-100 -39q-55 0 -85 35t-30 76z" />
<glyph unicode="&#xd7;" d="M145 416l314 282l-213 289l188 148l205 -279l293 270l139 -159l-307 -279l221 -297l-190 -145l-211 282l-299 -272z" />
<glyph unicode="&#xd8;" horiz-adv-x="1341" d="M133 512q0 156 42 314.5t129 285.5t219 207t313 80q59 0 108 -10.5t92 -26.5l94 154l142 -78l-101 -166q78 -78 112 -187.5t34 -232.5q0 -158 -41 -315.5t-126 -284.5t-215 -207t-310 -80q-66 0 -119 11.5t-100 29.5l-113 -184l-141 78l120 200q-74 78 -106.5 184.5 t-32.5 227.5zM420 483q0 -68 12 -118l475 782q-43 24 -102 24q-80 0 -150.5 -47t-123 -136t-82 -216t-29.5 -289zM535 221q44 -26 114 -26q74 0 141.5 48t121 137t85 216t31.5 285q0 68 -16 127z" />
<glyph unicode="&#xd9;" horiz-adv-x="1243" d="M139 381q0 39 4 80t11 82l137 829q25 4 51.5 6t46.5 2q84 0 118 -40t34 -99q0 -12 -1 -24.5t-3 -24.5l-107 -643q-8 -43 -10 -79t-2 -69q0 -109 43 -158.5t145 -49.5q61 0 105.5 17t76 57t52 102.5t34.5 154.5l142 848q25 4 50.5 6t45.5 2q84 0 119 -40t35 -99 q0 -12 -1 -24.5t-3 -24.5l-111 -666q-23 -139 -65 -243.5t-109.5 -175t-164.5 -106.5t-228 -36q-125 0 -210 32t-137.5 87t-75 131t-22.5 166zM469 1686q35 47 76 76.5t82 29.5t90 -43l213 -190q-35 -33 -68.5 -52.5t-72.5 -19.5q-41 0 -84 31z" />
<glyph unicode="&#xda;" horiz-adv-x="1243" d="M139 381q0 39 4 80t11 82l137 829q25 4 51.5 6t46.5 2q84 0 118 -40t34 -99q0 -12 -1 -24.5t-3 -24.5l-107 -643q-8 -43 -10 -79t-2 -69q0 -109 43 -158.5t145 -49.5q61 0 105.5 17t76 57t52 102.5t34.5 154.5l142 848q25 4 50.5 6t45.5 2q84 0 119 -40t35 -99 q0 -12 -1 -24.5t-3 -24.5l-111 -666q-23 -139 -65 -243.5t-109.5 -175t-164.5 -106.5t-228 -36q-125 0 -210 32t-137.5 87t-75 131t-22.5 166zM614 1559l232 186q23 18 51 32.5t57 14.5q49 0 83 -34t50 -75l-258 -163q-23 -14 -47 -23.5t-59 -9.5q-39 0 -65.5 23.5 t-43.5 48.5z" />
<glyph unicode="&#xdb;" horiz-adv-x="1243" d="M139 381q0 39 4 80t11 82l137 829q25 4 51.5 6t46.5 2q84 0 118 -40t34 -99q0 -12 -1 -24.5t-3 -24.5l-107 -643q-8 -43 -10 -79t-2 -69q0 -109 43 -158.5t145 -49.5q61 0 105.5 17t76 57t52 102.5t34.5 154.5l142 848q25 4 50.5 6t45.5 2q84 0 119 -40t35 -99 q0 -12 -1 -24.5t-3 -24.5l-111 -666q-23 -139 -65 -243.5t-109.5 -175t-164.5 -106.5t-228 -36q-125 0 -210 32t-137.5 87t-75 131t-22.5 166zM484 1518l209 219q29 29 61.5 44t79.5 15q49 0 75.5 -16.5t45.5 -48.5l121 -220q-23 -12 -51.5 -20t-53.5 -8q-29 0 -54.5 12 t-47.5 43l-64 92l-114 -106q-25 -23 -51.5 -31t-55.5 -8t-56.5 9t-43.5 24z" />
<glyph unicode="&#xdc;" horiz-adv-x="1243" d="M139 381q0 39 4 80t11 82l137 829q25 4 51.5 6t46.5 2q84 0 118 -40t34 -99q0 -12 -1 -24.5t-3 -24.5l-107 -643q-8 -43 -10 -79t-2 -69q0 -109 43 -158.5t145 -49.5q61 0 105.5 17t76 57t52 102.5t34.5 154.5l142 848q25 4 50.5 6t45.5 2q84 0 119 -40t35 -99 q0 -12 -1 -24.5t-3 -24.5l-111 -666q-23 -139 -65 -243.5t-109.5 -175t-164.5 -106.5t-228 -36q-125 0 -210 32t-137.5 87t-75 131t-22.5 166zM483 1606q0 80 41 118.5t100 38.5q55 0 85 -34.5t30 -75.5q0 -80 -41 -119t-100 -39q-55 0 -85 35t-30 76zM872 1606 q0 80 41 118.5t101 38.5q55 0 84.5 -34.5t29.5 -75.5q0 -80 -41 -119t-100 -39q-55 0 -85 35t-30 76z" />
<glyph unicode="&#xdd;" horiz-adv-x="1105" d="M174 1333q41 20 84 33.5t88 13.5q106 0 139 -100l144 -473l280 448q41 66 89.5 95.5t113.5 29.5q43 0 75 -11t62 -32l-528 -805l-88 -532h-277l88 530zM579 1559l232 186q23 18 51 32.5t57 14.5q49 0 83 -34t50 -75l-258 -163q-23 -14 -47 -23.5t-59 -9.5 q-39 0 -65.5 23.5t-43.5 48.5z" />
<glyph unicode="&#xde;" horiz-adv-x="1120" d="M63 0l228 1372q25 4 50.5 6t45.5 2q84 0 119 -40t35 -99q0 -12 -1 -24.5t-3 -24.5l-11 -64q23 2 44.5 2h43.5q129 0 222.5 -29.5t154 -80.5t89 -121t28.5 -149q0 -139 -46 -237.5t-129 -160t-201 -90.5t-259 -29h-94l-39 -233h-277zM416 451h100q68 0 123 15t95 49 t61.5 89t21.5 137q0 92 -64.5 137.5t-156.5 45.5q-29 0 -58.5 -1t-45.5 -5z" />
<glyph unicode="&#xdf;" horiz-adv-x="1202" d="M-350 -268q0 37 23.5 72.5t72.5 64.5q29 -41 64.5 -62.5t87.5 -21.5q66 0 101.5 50t51.5 145l176 1058q37 231 167 330.5t327 99.5q180 0 284.5 -72.5t104.5 -213.5q0 -70 -19.5 -120t-50 -89t-64.5 -70t-64.5 -58.5t-50 -56t-19.5 -63.5q0 -39 13 -63.5t35.5 -45 t55.5 -41t72 -51.5q72 -59 101.5 -117.5t29.5 -130.5q0 -57 -20.5 -112t-61.5 -98t-103.5 -70t-146.5 -27q-106 0 -166.5 17.5t-113.5 50.5q-39 25 -55.5 50.5t-16.5 55.5q0 49 24.5 83t65.5 63q47 -49 96 -79t115 -30q51 0 75.5 28t24.5 68q0 43 -44 82t-99 78 q-31 20 -56.5 42t-44 46.5t-29.5 56t-11 72.5q0 57 19.5 100.5t50 78t64.5 64.5t64.5 62.5t50 72.5t19.5 93t-35 93t-104 40q-88 0 -141.5 -53t-69.5 -153l-176 -1071q-31 -195 -127.5 -303.5t-280.5 -108.5q-41 0 -87 8t-86 26.5t-66.5 50.5t-26.5 79z" />
<glyph unicode="&#xe0;" horiz-adv-x="1056" d="M94 336q0 127 40 245.5t115 211t179 148.5t234 56q82 0 180 -25.5t186 -78.5l-106 -645q-6 -31 -7 -68q0 -45 7.5 -91t21.5 -81q-35 -20 -74 -28.5t-77 -8.5q-66 0 -105 31.5t-45 103.5q-47 -61 -111.5 -99t-154.5 -38q-84 0 -138.5 28t-86 76t-45 115.5t-13.5 147.5z M371 340q0 -162 110 -162q37 0 68 17.5t55.5 46t41 66.5t22.5 81l63 379q-41 25 -84 25q-53 0 -102 -32t-88 -90.5t-62.5 -142.5t-23.5 -188zM430 1393q29 25 73 45t81 20q43 0 69.5 -19.5t48.5 -58.5l133 -241q-23 -16 -58.5 -26.5t-59.5 -10.5q-66 0 -105 53z" />
<glyph unicode="&#xe1;" horiz-adv-x="1056" d="M94 336q0 127 40 245.5t115 211t179 148.5t234 56q82 0 180 -25.5t186 -78.5l-106 -645q-6 -31 -7 -68q0 -45 7.5 -91t21.5 -81q-35 -20 -74 -28.5t-77 -8.5q-66 0 -105 31.5t-45 103.5q-47 -61 -111.5 -99t-154.5 -38q-84 0 -138.5 28t-86 76t-45 115.5t-13.5 147.5z M371 340q0 -162 110 -162q37 0 68 17.5t55.5 46t41 66.5t22.5 81l63 379q-41 25 -84 25q-53 0 -102 -32t-88 -90.5t-62.5 -142.5t-23.5 -188zM549 1143l187 235q31 41 62.5 60.5t84.5 19.5q37 0 77 -22.5t60 -46.5l-235 -234q-25 -25 -55.5 -39t-65.5 -14q-29 0 -63.5 12 t-51.5 29z" />
<glyph unicode="&#xe2;" horiz-adv-x="1056" d="M94 336q0 127 40 245.5t115 211t179 148.5t234 56q82 0 180 -25.5t186 -78.5l-106 -645q-6 -31 -7 -68q0 -45 7.5 -91t21.5 -81q-35 -20 -74 -28.5t-77 -8.5q-66 0 -105 31.5t-45 103.5q-47 -61 -111.5 -99t-154.5 -38q-84 0 -138.5 28t-86 76t-45 115.5t-13.5 147.5z M371 340q0 -162 110 -162q37 0 68 17.5t55.5 46t41 66.5t22.5 81l63 379q-41 25 -84 25q-53 0 -102 -32t-88 -90.5t-62.5 -142.5t-23.5 -188zM381 1137l221 256q51 59 141 59q41 0 71.5 -12.5t47.5 -46.5l127 -263q-23 -12 -50.5 -20t-52.5 -8q-29 0 -55 10t-45 43l-72 121 l-137 -133q-25 -23 -50.5 -31t-47.5 -8q-29 0 -55.5 9t-42.5 24z" />
<glyph unicode="&#xe3;" horiz-adv-x="1056" d="M94 336q0 127 40 245.5t115 211t179 148.5t234 56q82 0 180 -25.5t186 -78.5l-106 -645q-6 -31 -7 -68q0 -45 7.5 -91t21.5 -81q-35 -20 -74 -28.5t-77 -8.5q-66 0 -105 31.5t-45 103.5q-47 -61 -111.5 -99t-154.5 -38q-84 0 -138.5 28t-86 76t-45 115.5t-13.5 147.5z M371 340q0 -162 110 -162q37 0 68 17.5t55.5 46t41 66.5t22.5 81l63 379q-41 25 -84 25q-53 0 -102 -32t-88 -90.5t-62.5 -142.5t-23.5 -188zM377 1239q0 33 19.5 59.5t51 46t69.5 30.5t75 11q49 0 83 -11t59.5 -24.5t47 -24.5t48.5 -11q35 0 64.5 17.5t68.5 70.5 q49 -25 62 -51.5t13 -59.5t-18 -59.5t-49 -46t-69 -30.5t-77 -11q-49 0 -81.5 11t-57 24.5t-46 25t-50.5 11.5q-31 0 -65.5 -15.5t-73.5 -68.5q-47 29 -60.5 51t-13.5 55z" />
<glyph unicode="&#xe4;" horiz-adv-x="1056" d="M94 336q0 127 40 245.5t115 211t179 148.5t234 56q82 0 180 -25.5t186 -78.5l-106 -645q-6 -31 -7 -68q0 -45 7.5 -91t21.5 -81q-35 -20 -74 -28.5t-77 -8.5q-66 0 -105 31.5t-45 103.5q-47 -61 -111.5 -99t-154.5 -38q-84 0 -138.5 28t-86 76t-45 115.5t-13.5 147.5z M371 340q0 -162 110 -162q37 0 68 17.5t55.5 46t41 66.5t22.5 81l63 379q-41 25 -84 25q-53 0 -102 -32t-88 -90.5t-62.5 -142.5t-23.5 -188zM389 1251q0 80 41 119t101 39q55 0 84.5 -35t29.5 -76q0 -80 -41 -118.5t-100 -38.5q-55 0 -85 34.5t-30 75.5zM778 1251 q0 80 41 119t101 39q55 0 84.5 -35t29.5 -76q0 -80 -41 -118.5t-100 -38.5q-55 0 -85 34.5t-30 75.5z" />
<glyph unicode="&#xe5;" horiz-adv-x="1056" d="M94 336q0 127 40 245.5t115 211t179 148.5t234 56q82 0 180 -25.5t186 -78.5l-106 -645q-6 -31 -7 -68q0 -45 7.5 -91t21.5 -81q-35 -20 -74 -28.5t-77 -8.5q-66 0 -105 31.5t-45 103.5q-47 -61 -111.5 -99t-154.5 -38q-84 0 -138.5 28t-86 76t-45 115.5t-13.5 147.5z M371 340q0 -162 110 -162q37 0 68 17.5t55.5 46t41 66.5t22.5 81l63 379q-41 25 -84 25q-53 0 -102 -32t-88 -90.5t-62.5 -142.5t-23.5 -188zM481 1343q0 47 15.5 90.5t45 75t72.5 51t97 19.5q51 0 94 -18.5t71.5 -51t45 -74.5t16.5 -89t-16.5 -90.5t-45 -76t-71.5 -51 t-94 -18.5q-53 0 -96.5 18.5t-73 50t-45 74.5t-15.5 90zM600 1346q0 -51 28.5 -89t82.5 -38q49 0 78.5 37.5t29.5 86.5q0 51 -29.5 88t-78.5 37q-51 0 -81 -36.5t-30 -85.5z" />
<glyph unicode="&#xe6;" horiz-adv-x="1574" d="M94 336q0 127 40 245.5t115 211t179 148.5t234 56q86 0 147 -24.5t131 -77.5q43 29 79 48.5t71.5 31.5t73.5 17t83 5q72 0 127.5 -20.5t93 -55t57 -81.5t19.5 -103q0 -115 -51 -185.5t-129 -111.5t-170 -55t-174 -14h-36.5t-33.5 2v-13q0 -47 15.5 -81.5t39 -57t53 -34 t58.5 -11.5q84 0 143.5 39t100.5 92q104 -53 104 -129q0 -43 -24.5 -73.5t-53.5 -51.5q-45 -31 -115.5 -57.5t-187.5 -26.5q-123 0 -210 53.5t-130 120.5q-31 -35 -65.5 -66.5t-77.5 -55t-96 -38t-123 -14.5q-86 0 -141.5 28t-87 76t-45 115.5t-13.5 147.5zM371 340 q0 -162 110 -162q37 0 68 17.5t55.5 46t41 66.5t22.5 81l63 379q-41 25 -84 25q-53 0 -102 -32t-88 -90.5t-62.5 -142.5t-23.5 -188zM969 537q18 -2 31.5 -2h29.5q47 0 94 10t86 31.5t62.5 53.5t23.5 75q0 35 -20.5 60.5t-71.5 25.5q-88 0 -148.5 -70t-86.5 -184z" />
<glyph unicode="&#xe7;" horiz-adv-x="923" d="M94 377q0 125 37 238.5t106.5 197.5t170 134t227.5 50q104 0 168.5 -33.5t97.5 -84.5q25 -41 25 -72q2 -55 -38 -89t-95 -56q-29 68 -68 96t-109 28q-57 0 -104 -33.5t-79 -92t-49 -135t-17 -165.5q2 -94 47 -137t104 -43q66 0 118 35t91 90q57 -23 84 -55.5t27 -69.5 q0 -66 -70 -123q-35 -29 -94.5 -55.5t-153.5 -30.5q-14 -16 -23.5 -33.5t-9.5 -39.5q0 -18 11.5 -33t25 -32t24.5 -40.5t11 -58.5q0 -53 -21.5 -91t-55 -61.5t-75.5 -35t-85 -11.5q-55 0 -79 24.5t-24 57.5q0 37 27 74q18 -10 37.5 -12.5t35.5 -2.5q33 0 48.5 17.5 t15.5 40.5q0 18 -8 32.5t-17.5 27.5t-16.5 28.5t-7 36.5q0 35 14 65.5t37 55.5q-82 14 -137 52t-89 91t-49.5 118.5t-15.5 135.5z" />
<glyph unicode="&#xe8;" horiz-adv-x="985" d="M94 377q0 125 39 238.5t110.5 197.5t176 134t237.5 50q72 0 127.5 -20.5t93 -55t57 -81.5t19.5 -103q0 -115 -51 -185.5t-129 -111.5t-170 -55t-174 -14h-36.5t-33.5 2v-13q0 -47 15.5 -81.5t39 -57t53.5 -34t58 -11.5q84 0 143.5 39t100.5 92q104 -53 104 -129 q0 -43 -24.5 -73.5t-52.5 -51.5q-45 -31 -116 -57.5t-187 -26.5q-113 0 -189 34t-123 90.5t-67.5 130t-20.5 153.5zM379 537q18 -2 31.5 -2h29.5q47 0 94.5 10t86 31.5t62.5 53.5t24 75q0 35 -20.5 60.5t-72.5 25.5q-88 0 -148 -70t-87 -184zM387 1393q29 25 73 45t81 20 q43 0 69.5 -19.5t48.5 -58.5l133 -241q-23 -16 -58.5 -26.5t-59.5 -10.5q-66 0 -105 53z" />
<glyph unicode="&#xe9;" horiz-adv-x="985" d="M94 377q0 125 39 238.5t110.5 197.5t176 134t237.5 50q72 0 127.5 -20.5t93 -55t57 -81.5t19.5 -103q0 -115 -51 -185.5t-129 -111.5t-170 -55t-174 -14h-36.5t-33.5 2v-13q0 -47 15.5 -81.5t39 -57t53.5 -34t58 -11.5q84 0 143.5 39t100.5 92q104 -53 104 -129 q0 -43 -24.5 -73.5t-52.5 -51.5q-45 -31 -116 -57.5t-187 -26.5q-113 0 -189 34t-123 90.5t-67.5 130t-20.5 153.5zM379 537q18 -2 31.5 -2h29.5q47 0 94.5 10t86 31.5t62.5 53.5t24 75q0 35 -20.5 60.5t-72.5 25.5q-88 0 -148 -70t-87 -184zM487 1143l187 235 q31 41 62.5 60.5t84.5 19.5q37 0 77 -22.5t60 -46.5l-235 -234q-25 -25 -55.5 -39t-65.5 -14q-29 0 -63.5 12t-51.5 29z" />
<glyph unicode="&#xea;" horiz-adv-x="985" d="M94 377q0 125 39 238.5t110.5 197.5t176 134t237.5 50q72 0 127.5 -20.5t93 -55t57 -81.5t19.5 -103q0 -115 -51 -185.5t-129 -111.5t-170 -55t-174 -14h-36.5t-33.5 2v-13q0 -47 15.5 -81.5t39 -57t53.5 -34t58 -11.5q84 0 143.5 39t100.5 92q104 -53 104 -129 q0 -43 -24.5 -73.5t-52.5 -51.5q-45 -31 -116 -57.5t-187 -26.5q-113 0 -189 34t-123 90.5t-67.5 130t-20.5 153.5zM342 1137l221 256q51 59 141 59q41 0 71.5 -12.5t47.5 -46.5l127 -263q-23 -12 -50.5 -20t-52.5 -8q-29 0 -55 10t-45 43l-72 121l-137 -133 q-25 -23 -50.5 -31t-47.5 -8q-29 0 -55.5 9t-42.5 24zM379 537q18 -2 31.5 -2h29.5q47 0 94.5 10t86 31.5t62.5 53.5t24 75q0 35 -20.5 60.5t-72.5 25.5q-88 0 -148 -70t-87 -184z" />
<glyph unicode="&#xeb;" horiz-adv-x="985" d="M94 377q0 125 39 238.5t110.5 197.5t176 134t237.5 50q72 0 127.5 -20.5t93 -55t57 -81.5t19.5 -103q0 -115 -51 -185.5t-129 -111.5t-170 -55t-174 -14h-36.5t-33.5 2v-13q0 -47 15.5 -81.5t39 -57t53.5 -34t58 -11.5q84 0 143.5 39t100.5 92q104 -53 104 -129 q0 -43 -24.5 -73.5t-52.5 -51.5q-45 -31 -116 -57.5t-187 -26.5q-113 0 -189 34t-123 90.5t-67.5 130t-20.5 153.5zM364 1251q0 80 41 119t101 39q55 0 84.5 -35t29.5 -76q0 -80 -41 -118.5t-100 -38.5q-55 0 -85 34.5t-30 75.5zM379 537q18 -2 31.5 -2h29.5q47 0 94.5 10 t86 31.5t62.5 53.5t24 75q0 35 -20.5 60.5t-72.5 25.5q-88 0 -148 -70t-87 -184zM753 1251q0 80 41 119t101 39q55 0 84.5 -35t29.5 -76q0 -80 -41 -118.5t-100 -38.5q-55 0 -85 34.5t-30 75.5z" />
<glyph unicode="&#xec;" horiz-adv-x="503" d="M80 125q0 8 1 21.5t3 23.5l131 799q25 4 50.5 6t45.5 2q84 0 120 -40t36 -99q0 -12 -1 -24.5t-3 -25.5l-90 -540q-4 -23 -6 -46.5t-2 -47.5q0 -39 5 -78t15 -68q-35 -20 -68.5 -28.5t-72.5 -8.5q-84 0 -124 33t-40 121zM102 1393q29 25 73 45t81 20q43 0 69.5 -19.5 t48.5 -58.5l133 -241q-23 -16 -58.5 -26.5t-59.5 -10.5q-66 0 -105 53z" />
<glyph unicode="&#xed;" horiz-adv-x="503" d="M80 125q0 8 1 21.5t3 23.5l131 799q25 4 50.5 6t45.5 2q84 0 120 -40t36 -99q0 -12 -1 -24.5t-3 -25.5l-90 -540q-4 -23 -6 -46.5t-2 -47.5q0 -39 5 -78t15 -68q-35 -20 -68.5 -28.5t-72.5 -8.5q-84 0 -124 33t-40 121zM200 1143l187 235q31 41 62.5 60.5t84.5 19.5 q37 0 77 -22.5t60 -46.5l-235 -234q-25 -25 -55.5 -39t-65.5 -14q-29 0 -63.5 12t-51.5 29z" />
<glyph unicode="&#xee;" horiz-adv-x="503" d="M50 1137l221 256q51 59 141 59q41 0 71.5 -12.5t47.5 -46.5l127 -263q-23 -12 -50.5 -20t-52.5 -8q-29 0 -55 10t-45 43l-72 121l-137 -133q-25 -23 -50.5 -31t-47.5 -8q-29 0 -55.5 9t-42.5 24zM80 125q0 8 1 21.5t3 23.5l131 799q25 4 50.5 6t45.5 2q84 0 120 -40 t36 -99q0 -12 -1 -24.5t-3 -25.5l-90 -540q-4 -23 -6 -46.5t-2 -47.5q0 -39 5 -78t15 -68q-35 -20 -68.5 -28.5t-72.5 -8.5q-84 0 -124 33t-40 121z" />
<glyph unicode="&#xef;" horiz-adv-x="503" d="M65 1251q0 80 41 119t101 39q55 0 84.5 -35t29.5 -76q0 -80 -41 -118.5t-100 -38.5q-55 0 -85 34.5t-30 75.5zM80 125q0 8 1 21.5t3 23.5l131 799q25 4 50.5 6t45.5 2q84 0 120 -40t36 -99q0 -12 -1 -24.5t-3 -25.5l-90 -540q-4 -23 -6 -46.5t-2 -47.5q0 -39 5 -78 t15 -68q-35 -20 -68.5 -28.5t-72.5 -8.5q-84 0 -124 33t-40 121zM454 1251q0 80 41 119t101 39q55 0 84.5 -35t29.5 -76q0 -80 -41 -118.5t-100 -38.5q-55 0 -85 34.5t-30 75.5z" />
<glyph unicode="&#xf0;" horiz-adv-x="1054" d="M84 379q0 135 41 230.5t105.5 155.5t144.5 89t157 29q70 0 113 -20.5t88 -55.5q0 72 -24.5 138.5t-69.5 125.5l-170 -106l-86 135l135 84q-109 70 -235 82q-2 49 11 80.5t34.5 50t46 24.5t47.5 6q16 0 28.5 -2t22.5 -4q135 -29 246 -112l174 110l86 -135l-143 -90 q78 -96 121.5 -219t43.5 -260q0 -197 -39.5 -337t-111.5 -230.5t-170 -132.5t-217 -42q-74 0 -142.5 22.5t-121 72t-84 126t-31.5 185.5zM334 393q0 -104 38.5 -160.5t110.5 -56.5q84 0 133.5 48t74 117t31.5 145.5t7 134.5q-23 29 -61.5 49t-89.5 20q-47 0 -91.5 -14 t-78 -48t-54 -91.5t-20.5 -143.5z" />
<glyph unicode="&#xf1;" horiz-adv-x="1048" d="M55 0l160 969q47 8 102 8q57 0 92 -24.5t54 -84.5q47 51 114.5 90t170.5 39q92 0 149 -41t80 -104q20 -59 20 -131q0 -37 -4 -73t-10 -70l-96 -578h-277l97 578q4 23 6 43t2 41q0 47 -21.5 79.5t-87.5 32.5t-115 -55t-63 -141l-96 -578h-277zM309 1239q0 33 19.5 59.5 t51 46t69.5 30.5t75 11q49 0 83 -11t59.5 -24.5t47 -24.5t48.5 -11q35 0 64.5 17.5t68.5 70.5q49 -25 62 -51.5t13 -59.5t-18 -59.5t-49 -46t-69 -30.5t-77 -11q-49 0 -81.5 11t-57 24.5t-46 25t-50.5 11.5q-31 0 -65.5 -15.5t-73.5 -68.5q-47 29 -60.5 51t-13.5 55z" />
<glyph unicode="&#xf2;" horiz-adv-x="1054" d="M94 377q0 125 35 238.5t102.5 197.5t167 134t228.5 50q104 0 177 -33.5t118 -90t65.5 -130t20.5 -153.5q0 -121 -32 -233.5t-97.5 -198.5t-166 -137.5t-237.5 -51.5q-109 0 -181.5 34t-116.5 90.5t-63.5 130t-19.5 153.5zM367 365q0 -94 37.5 -140.5t95.5 -46.5 q47 0 90 27.5t74.5 81t50 132.5t18.5 181q0 94 -38 140t-95 46q-47 0 -90 -27.5t-75 -80.5t-50 -132t-18 -181zM395 1393q29 25 73 45t81 20q43 0 69.5 -19.5t48.5 -58.5l133 -241q-23 -16 -58.5 -26.5t-59.5 -10.5q-66 0 -105 53z" />
<glyph unicode="&#xf3;" horiz-adv-x="1054" d="M94 377q0 125 35 238.5t102.5 197.5t167 134t228.5 50q104 0 177 -33.5t118 -90t65.5 -130t20.5 -153.5q0 -121 -32 -233.5t-97.5 -198.5t-166 -137.5t-237.5 -51.5q-109 0 -181.5 34t-116.5 90.5t-63.5 130t-19.5 153.5zM367 365q0 -94 37.5 -140.5t95.5 -46.5 q47 0 90 27.5t74.5 81t50 132.5t18.5 181q0 94 -38 140t-95 46q-47 0 -90 -27.5t-75 -80.5t-50 -132t-18 -181zM502 1143l187 235q31 41 62.5 60.5t84.5 19.5q37 0 77 -22.5t60 -46.5l-235 -234q-25 -25 -55.5 -39t-65.5 -14q-29 0 -63.5 12t-51.5 29z" />
<glyph unicode="&#xf4;" horiz-adv-x="1054" d="M94 377q0 125 35 238.5t102.5 197.5t167 134t228.5 50q104 0 177 -33.5t118 -90t65.5 -130t20.5 -153.5q0 -121 -32 -233.5t-97.5 -198.5t-166 -137.5t-237.5 -51.5q-109 0 -181.5 34t-116.5 90.5t-63.5 130t-19.5 153.5zM330 1137l221 256q51 59 141 59q41 0 71.5 -12.5 t47.5 -46.5l127 -263q-23 -12 -50.5 -20t-52.5 -8q-29 0 -55 10t-45 43l-72 121l-137 -133q-25 -23 -50.5 -31t-47.5 -8q-29 0 -55.5 9t-42.5 24zM367 365q0 -94 37.5 -140.5t95.5 -46.5q47 0 90 27.5t74.5 81t50 132.5t18.5 181q0 94 -38 140t-95 46q-47 0 -90 -27.5 t-75 -80.5t-50 -132t-18 -181z" />
<glyph unicode="&#xf5;" horiz-adv-x="1054" d="M94 377q0 125 35 238.5t102.5 197.5t167 134t228.5 50q104 0 177 -33.5t118 -90t65.5 -130t20.5 -153.5q0 -121 -32 -233.5t-97.5 -198.5t-166 -137.5t-237.5 -51.5q-109 0 -181.5 34t-116.5 90.5t-63.5 130t-19.5 153.5zM301 1239q0 33 19.5 59.5t51 46t69.5 30.5t75 11 q49 0 83 -11t59.5 -24.5t47 -24.5t48.5 -11q35 0 64.5 17.5t68.5 70.5q49 -25 62 -51.5t13 -59.5t-18 -59.5t-49 -46t-69 -30.5t-77 -11q-49 0 -81.5 11t-57 24.5t-46 25t-50.5 11.5q-31 0 -65.5 -15.5t-73.5 -68.5q-47 29 -60.5 51t-13.5 55zM367 365q0 -94 37.5 -140.5 t95.5 -46.5q47 0 90 27.5t74.5 81t50 132.5t18.5 181q0 94 -38 140t-95 46q-47 0 -90 -27.5t-75 -80.5t-50 -132t-18 -181z" />
<glyph unicode="&#xf6;" horiz-adv-x="1054" d="M94 377q0 125 35 238.5t102.5 197.5t167 134t228.5 50q104 0 177 -33.5t118 -90t65.5 -130t20.5 -153.5q0 -121 -32 -233.5t-97.5 -198.5t-166 -137.5t-237.5 -51.5q-109 0 -181.5 34t-116.5 90.5t-63.5 130t-19.5 153.5zM340 1251q0 80 41 119t101 39q55 0 84.5 -35 t29.5 -76q0 -80 -41 -118.5t-100 -38.5q-55 0 -85 34.5t-30 75.5zM367 365q0 -94 37.5 -140.5t95.5 -46.5q47 0 90 27.5t74.5 81t50 132.5t18.5 181q0 94 -38 140t-95 46q-47 0 -90 -27.5t-75 -80.5t-50 -132t-18 -181zM729 1251q0 80 41 119t101 39q55 0 84.5 -35t29.5 -76 q0 -80 -41 -118.5t-100 -38.5q-55 0 -85 34.5t-30 75.5z" />
<glyph unicode="&#xf7;" d="M150 575l38 224h879l-39 -224h-878zM410 305q0 84 46 126t105 42t92 -38t33 -83q0 -84 -45 -126t-106 -42q-59 0 -92 38t-33 83zM528 1018q0 84 46.5 126t105.5 42t92 -38t33 -83q0 -84 -45.5 -126t-106.5 -42q-59 0 -92 38t-33 83z" />
<glyph unicode="&#xf8;" horiz-adv-x="1054" d="M94 377q0 125 35 238.5t102.5 197.5t167 134t228.5 50q96 0 174 -32l78 118l100 -59l-82 -123q59 -59 85 -139t26 -172q0 -121 -32 -233.5t-97.5 -198.5t-166 -137.5t-237.5 -51.5q-53 0 -96 8.5t-78 22.5l-96 -145l-101 59l99 149q-59 57 -84 139.5t-25 174.5zM367 365 q0 -14 1 -26.5t3 -23.5l297 451q-31 20 -68 20q-47 0 -90 -27.5t-75 -80.5t-50 -132t-18 -181zM432 197q27 -19 68 -19q47 0 90 27.5t74.5 81t50 132.5t18.5 181q0 12 -1 24.5t-3 22.5z" />
<glyph unicode="&#xf9;" horiz-adv-x="1054" d="M98 254q0 37 4 72.5t11 70.5l94 572q25 4 50.5 6t45.5 2q84 0 120 -40t36 -99q0 -12 -1 -24.5t-3 -25.5l-66 -391q-6 -35 -6 -71q0 -57 22.5 -102.5t81.5 -45.5q33 0 63 18.5t53.5 48t41 69.5t23.5 83l96 572q25 4 49.5 6t44.5 2q84 0 120 -40t36 -99q0 -12 -1 -24.5 t-3 -25.5l-90 -540q-6 -31 -7 -68q0 -45 7.5 -91t21.5 -81q-35 -20 -74 -28.5t-77 -8.5q-66 0 -105 31.5t-45 103.5q-41 -51 -103.5 -94t-164.5 -43q-106 0 -169 45t-85 109q-20 59 -21 131zM342 1393q29 25 73 45t81 20q43 0 69.5 -19.5t48.5 -58.5l133 -241 q-23 -16 -58.5 -26.5t-59.5 -10.5q-66 0 -105 53z" />
<glyph unicode="&#xfa;" horiz-adv-x="1054" d="M98 254q0 37 4 72.5t11 70.5l94 572q25 4 50.5 6t45.5 2q84 0 120 -40t36 -99q0 -12 -1 -24.5t-3 -25.5l-66 -391q-6 -35 -6 -71q0 -57 22.5 -102.5t81.5 -45.5q33 0 63 18.5t53.5 48t41 69.5t23.5 83l96 572q25 4 49.5 6t44.5 2q84 0 120 -40t36 -99q0 -12 -1 -24.5 t-3 -25.5l-90 -540q-6 -31 -7 -68q0 -45 7.5 -91t21.5 -81q-35 -20 -74 -28.5t-77 -8.5q-66 0 -105 31.5t-45 103.5q-41 -51 -103.5 -94t-164.5 -43q-106 0 -169 45t-85 109q-20 59 -21 131zM469 1143l187 235q31 41 62.5 60.5t84.5 19.5q37 0 77 -22.5t60 -46.5l-235 -234 q-25 -25 -55.5 -39t-65.5 -14q-29 0 -63.5 12t-51.5 29z" />
<glyph unicode="&#xfb;" horiz-adv-x="1054" d="M98 254q0 37 4 72.5t11 70.5l94 572q25 4 50.5 6t45.5 2q84 0 120 -40t36 -99q0 -12 -1 -24.5t-3 -25.5l-66 -391q-6 -35 -6 -71q0 -57 22.5 -102.5t81.5 -45.5q33 0 63 18.5t53.5 48t41 69.5t23.5 83l96 572q25 4 49.5 6t44.5 2q84 0 120 -40t36 -99q0 -12 -1 -24.5 t-3 -25.5l-90 -540q-6 -31 -7 -68q0 -45 7.5 -91t21.5 -81q-35 -20 -74 -28.5t-77 -8.5q-66 0 -105 31.5t-45 103.5q-41 -51 -103.5 -94t-164.5 -43q-106 0 -169 45t-85 109q-20 59 -21 131zM320 1137l221 256q51 59 141 59q41 0 71.5 -12.5t47.5 -46.5l127 -263 q-23 -12 -50.5 -20t-52.5 -8q-29 0 -55 10t-45 43l-72 121l-137 -133q-25 -23 -50.5 -31t-47.5 -8q-29 0 -55.5 9t-42.5 24z" />
<glyph unicode="&#xfc;" horiz-adv-x="1054" d="M98 254q0 37 4 72.5t11 70.5l94 572q25 4 50.5 6t45.5 2q84 0 120 -40t36 -99q0 -12 -1 -24.5t-3 -25.5l-66 -391q-6 -35 -6 -71q0 -57 22.5 -102.5t81.5 -45.5q33 0 63 18.5t53.5 48t41 69.5t23.5 83l96 572q25 4 49.5 6t44.5 2q84 0 120 -40t36 -99q0 -12 -1 -24.5 t-3 -25.5l-90 -540q-6 -31 -7 -68q0 -45 7.5 -91t21.5 -81q-35 -20 -74 -28.5t-77 -8.5q-66 0 -105 31.5t-45 103.5q-41 -51 -103.5 -94t-164.5 -43q-106 0 -169 45t-85 109q-20 59 -21 131zM319 1251q0 80 41 119t101 39q55 0 84.5 -35t29.5 -76q0 -80 -41 -118.5 t-100 -38.5q-55 0 -85 34.5t-30 75.5zM708 1251q0 80 41 119t101 39q55 0 84.5 -35t29.5 -76q0 -80 -41 -118.5t-100 -38.5q-55 0 -85 34.5t-30 75.5z" />
<glyph unicode="&#xfd;" horiz-adv-x="940" d="M-143 -313q0 74 96 137q29 -41 67.5 -58.5t73.5 -17.5q37 0 63.5 12.5t48 38t42 63.5t43.5 91l16 37h-57l-154 958q72 29 148 29q43 0 70.5 -15.5t45 -42t25.5 -61.5t12 -74l43 -520l217 527q35 84 86.5 135t128.5 51q41 0 76 -8t58 -21l-502 -1065q-35 -72 -68 -135 t-77 -110.5t-102 -75t-142 -27.5q-66 0 -110 11.5t-71 27.5q-39 25 -58 51.5t-19 61.5zM434 1143l187 235q31 41 62.5 60.5t84.5 19.5q37 0 77 -22.5t60 -46.5l-235 -234q-25 -25 -55.5 -39t-65.5 -14q-29 0 -63.5 12t-51.5 29z" />
<glyph unicode="&#xfe;" horiz-adv-x="1069" d="M-16 -446l309 1890q25 4 49.5 6t44.5 2q84 0 120 -40t36 -99q0 -12 -1 -24.5t-3 -24.5l-64 -373q43 41 105.5 73.5t146.5 32.5q82 0 139.5 -30.5t91 -85t49 -125t15.5 -150.5q0 -127 -36 -242.5t-101.5 -202.5t-157.5 -139.5t-203 -52.5q-66 0 -112.5 18.5t-79.5 41.5 l-78 -475h-270zM360 201q23 -16 46.5 -21.5t68.5 -5.5q51 0 99.5 27.5t84 83t57 137.5t21.5 190q0 92 -36.5 135.5t-94.5 43.5q-35 0 -64.5 -17.5t-53 -45.5t-39 -61.5t-21.5 -66.5z" />
<glyph unicode="&#xff;" horiz-adv-x="940" d="M-143 -313q0 74 96 137q29 -41 67.5 -58.5t73.5 -17.5q37 0 63.5 12.5t48 38t42 63.5t43.5 91l16 37h-57l-154 958q72 29 148 29q43 0 70.5 -15.5t45 -42t25.5 -61.5t12 -74l43 -520l217 527q35 84 86.5 135t128.5 51q41 0 76 -8t58 -21l-502 -1065q-35 -72 -68 -135 t-77 -110.5t-102 -75t-142 -27.5q-66 0 -110 11.5t-71 27.5q-39 25 -58 51.5t-19 61.5zM248 1251q0 80 41 119t101 39q55 0 84.5 -35t29.5 -76q0 -80 -41 -118.5t-100 -38.5q-55 0 -85 34.5t-30 75.5zM637 1251q0 80 41 119t101 39q55 0 84.5 -35t29.5 -76q0 -80 -41 -118.5 t-100 -38.5q-55 0 -85 34.5t-30 75.5z" />
<glyph unicode="&#x152;" horiz-adv-x="1703" d="M133 518q0 164 42 318.5t129 273.5t219 190.5t313 71.5h954q-2 -61 -12.5 -103t-34 -67.5t-60 -37t-92.5 -11.5h-344l-55 -338h387l-37 -219h-387l-61 -377h350q94 0 133 -33.5t39 -99.5q0 -25 -4 -49.5t-10 -36.5h-977q-133 0 -226.5 40t-153 110.5t-86 165t-26.5 202.5 zM420 489q0 -55 15.5 -104t44 -86t70.5 -58.5t95 -21.5h170l156 934h-158q-74 0 -144.5 -40t-126 -123t-89 -208t-33.5 -293z" />
<glyph unicode="&#x153;" horiz-adv-x="1611" d="M94 377q0 125 35 238.5t102.5 197.5t167 134t228.5 50q121 0 185.5 -41t107.5 -104q63 66 152 105.5t212 39.5q72 0 127 -20.5t93 -55t57.5 -81.5t19.5 -103q0 -115 -51 -185.5t-129 -111.5t-170 -55t-174 -14h-36.5t-33.5 2v-13q0 -47 15.5 -81.5t39 -57t53 -34 t58.5 -11.5q84 0 143.5 39t100.5 92q104 -53 104 -129q0 -43 -24.5 -73.5t-53.5 -51.5q-45 -31 -115.5 -57.5t-187.5 -26.5q-121 0 -191.5 39t-117.5 101q-59 -61 -137 -100.5t-199 -39.5q-109 0 -181.5 34t-116.5 90.5t-63.5 130t-19.5 153.5zM367 365q0 -94 37.5 -140.5 t95.5 -46.5q47 0 90 27.5t74.5 81t50 132.5t18.5 181q0 94 -38 140t-95 46q-47 0 -90 -27.5t-75 -80.5t-50 -132t-18 -181zM1006 537q18 -2 31.5 -2h29.5q47 0 94 10t86 31.5t62.5 53.5t23.5 75q0 35 -20.5 60.5t-71.5 25.5q-88 0 -147.5 -69t-87.5 -185z" />
<glyph unicode="&#x178;" horiz-adv-x="1105" d="M174 1333q41 20 84 33.5t88 13.5q106 0 139 -100l144 -473l280 448q41 66 89.5 95.5t113.5 29.5q43 0 75 -11t62 -32l-528 -805l-88 -532h-277l88 530zM399 1606q0 80 41 118.5t100 38.5q55 0 85 -34.5t30 -75.5q0 -80 -41 -119t-100 -39q-55 0 -85 35t-30 76zM788 1606 q0 80 41 118.5t101 38.5q55 0 84.5 -34.5t29.5 -75.5q0 -80 -41 -119t-100 -39q-55 0 -85 35t-30 76z" />
<glyph unicode="&#x2c6;" horiz-adv-x="745" d="M68 1137l221 256q51 59 141 59q41 0 71.5 -12.5t47.5 -46.5l127 -263q-23 -12 -50.5 -20t-52.5 -8q-29 0 -55 10t-45 43l-72 121l-137 -133q-25 -23 -50.5 -31t-47.5 -8q-29 0 -55.5 9t-42.5 24z" />
<glyph unicode="&#x2dc;" horiz-adv-x="745" d="M41 1239q0 33 19.5 59.5t51 46t69.5 30.5t75 11q49 0 83 -11t59.5 -24.5t47 -24.5t48.5 -11q35 0 64.5 17.5t68.5 70.5q49 -25 62 -51.5t13 -59.5t-18 -59.5t-49 -46t-69 -30.5t-77 -11q-49 0 -81.5 11t-57 24.5t-46 25t-50.5 11.5q-31 0 -65.5 -15.5t-73.5 -68.5 q-47 29 -60.5 51t-13.5 55z" />
<glyph unicode="&#x2000;" horiz-adv-x="898" />
<glyph unicode="&#x2001;" horiz-adv-x="1796" />
<glyph unicode="&#x2002;" horiz-adv-x="898" />
<glyph unicode="&#x2003;" horiz-adv-x="1796" />
<glyph unicode="&#x2004;" horiz-adv-x="598" />
<glyph unicode="&#x2005;" horiz-adv-x="449" />
<glyph unicode="&#x2006;" horiz-adv-x="299" />
<glyph unicode="&#x2007;" horiz-adv-x="299" />
<glyph unicode="&#x2008;" horiz-adv-x="224" />
<glyph unicode="&#x2009;" horiz-adv-x="359" />
<glyph unicode="&#x200a;" horiz-adv-x="99" />
<glyph unicode="&#x2010;" horiz-adv-x="862" d="M137 557q0 23 4 51.5t15 55.5h450q84 0 118 -39t32 -93q0 -23 -4 -52t-15 -56h-450q-84 0 -118 40t-32 93z" />
<glyph unicode="&#x2011;" horiz-adv-x="862" d="M137 557q0 23 4 51.5t15 55.5h450q84 0 118 -39t32 -93q0 -23 -4 -52t-15 -56h-450q-84 0 -118 40t-32 93z" />
<glyph unicode="&#x2012;" horiz-adv-x="862" d="M137 557q0 23 4 51.5t15 55.5h450q84 0 118 -39t32 -93q0 -23 -4 -52t-15 -56h-450q-84 0 -118 40t-32 93z" />
<glyph unicode="&#x2013;" horiz-adv-x="1024" d="M35 563q0 20 4 48t12 53h862q78 0 111 -36t31 -89q0 -20 -4 -49t-13 -54h-862q-78 0 -110.5 38t-30.5 89z" />
<glyph unicode="&#x2014;" horiz-adv-x="2048" d="M35 563q0 20 4 48t12 53h1886q78 0 111 -36t31 -89q0 -20 -4 -49t-13 -54h-1886q-78 0 -110.5 38t-30.5 89z" />
<glyph unicode="&#x2018;" horiz-adv-x="489" d="M195 1055q0 63 26.5 131.5t69.5 125t98 93.5t113 37q82 0 94 -68q-53 -25 -102.5 -65.5t-69.5 -118.5q31 -23 52.5 -50.5t21.5 -80.5q0 -82 -48 -125t-114 -43t-103.5 44t-37.5 120z" />
<glyph unicode="&#x2019;" horiz-adv-x="489" d="M141 956q53 25 102.5 66t69.5 119q-31 23 -52 50.5t-21 80.5q0 82 47.5 125t113.5 43t104 -44t38 -120q0 -63 -27 -132t-70 -125t-98 -93t-112 -37q-82 0 -95 67z" />
<glyph unicode="&#x201a;" horiz-adv-x="489" d="M-31 -215q53 25 102.5 65.5t69.5 118.5q-31 23 -52 50.5t-21 80.5q0 82 47.5 125t113.5 43t104 -44t38 -120q0 -63 -27 -131.5t-70 -125t-98 -93.5t-113 -37q-82 0 -94 68z" />
<glyph unicode="&#x201c;" horiz-adv-x="886" d="M195 1055q0 63 26.5 131.5t69.5 125t98 93.5t113 37q82 0 94 -68q-53 -25 -102.5 -65.5t-69.5 -118.5q31 -23 52.5 -50.5t21.5 -80.5q0 -82 -48 -125t-114 -43t-103.5 44t-37.5 120zM592 1055q0 63 26.5 131.5t69.5 125t98 93.5t113 37q82 0 94 -68q-53 -25 -102.5 -65.5 t-69.5 -118.5q31 -23 52.5 -50.5t21.5 -80.5q0 -82 -48 -125t-114 -43t-103.5 44t-37.5 120z" />
<glyph unicode="&#x201d;" horiz-adv-x="886" d="M141 956q53 25 102.5 66t69.5 119q-31 23 -52 50.5t-21 80.5q0 82 47.5 125t113.5 43t104 -44t38 -120q0 -63 -27 -132t-70 -125t-98 -93t-112 -37q-82 0 -95 67zM538 956q53 25 102.5 66t69.5 119q-31 23 -52 50.5t-21 80.5q0 82 47.5 125t113.5 43t104 -44t38 -120 q0 -63 -27 -132t-70 -125t-98 -93t-112 -37q-82 0 -95 67z" />
<glyph unicode="&#x201e;" horiz-adv-x="905" d="M-31 -215q53 25 102.5 65.5t69.5 118.5q-31 23 -52 50.5t-21 80.5q0 82 47.5 125t113.5 43t104 -44t38 -120q0 -63 -27 -131.5t-70 -125t-98 -93.5t-113 -37q-82 0 -94 68zM385 -215q53 25 102.5 65.5t69.5 118.5q-31 23 -52 50.5t-21 80.5q0 82 47.5 125t113.5 43 t104 -44t38 -120q0 -63 -27 -131.5t-70 -125t-98 -93.5t-113 -37q-82 0 -94 68z" />
<glyph unicode="&#x2022;" horiz-adv-x="808" d="M180 717q0 57 19.5 107t55.5 88t87 59.5t113 21.5q63 0 114.5 -21.5t88 -59.5t56 -88t19.5 -107q0 -55 -20.5 -105.5t-57.5 -88.5t-88 -59.5t-112 -21.5t-112.5 21.5t-87.5 59.5t-55.5 88.5t-19.5 105.5z" />
<glyph unicode="&#x2026;" horiz-adv-x="1320" d="M47 102q0 96 50 142.5t120 46.5q66 0 102.5 -42t36.5 -91q0 -96 -50 -142.5t-120 -46.5q-66 0 -102.5 42t-36.5 91zM473 102q0 96 50 142.5t120 46.5q66 0 102.5 -42t36.5 -91q0 -96 -50 -142.5t-120 -46.5q-66 0 -102.5 42t-36.5 91zM893 102q0 96 50 142.5t120 46.5 q66 0 102.5 -42t36.5 -91q0 -96 -50 -142.5t-120 -46.5q-66 0 -102.5 42t-36.5 91z" />
<glyph unicode="&#x202f;" horiz-adv-x="359" />
<glyph unicode="&#x2039;" horiz-adv-x="573" d="M115 545q0 51 29.5 96t74.5 82l326 264q20 -35 30.5 -65.5t10.5 -65.5q0 -80 -62 -135l-170 -156l123 -194q25 -41 25 -80q0 -49 -29 -87t-70 -67l-239 287q-49 57 -49 121z" />
<glyph unicode="&#x203a;" horiz-adv-x="573" d="M49 268q0 80 62 135l170 156l-123 195q-25 39 -25 80q0 49 28.5 86.5t69.5 66.5l240 -287q49 -57 49 -120q0 -51 -29.5 -96.5t-74.5 -82.5l-326 -264q-20 35 -30.5 65.5t-10.5 65.5z" />
<glyph unicode="&#x205f;" horiz-adv-x="449" />
<glyph unicode="&#x20ac;" d="M70 455l20 129h135q2 37 5 74.5t10 76.5h-125l20 129h133q29 104 77 196.5t121 161t169 109.5t219 41q113 0 192.5 -32.5t118.5 -77.5q23 -25 35 -53.5t10 -57.5q-2 -63 -44 -99t-101 -51q-31 68 -81 108t-150 40q-98 0 -173 -71.5t-116 -213.5h387l-21 -129h-393 q-4 -35 -8 -72.5t-6 -78.5h383l-21 -129h-360q8 -111 60 -188t157 -77q98 0 164.5 39t124.5 105q92 -70 92 -137q0 -57 -30 -90t-85 -68q-47 -29 -117.5 -51.5t-175.5 -22.5q-119 0 -203.5 37t-141 101.5t-86 154.5t-38.5 197h-157z" />
<glyph unicode="&#x2122;" horiz-adv-x="1650" d="M125 1288q0 16 4 32.5t16.5 29t36 20.5t60.5 8h512q4 -16 5 -34.5t1 -28.5q0 -33 -19.5 -62.5t-83.5 -29.5h-129v-600h-184v600h-211q-4 20 -6 37.5t-2 27.5zM795 623l49 745q14 6 41.5 11t50.5 5q47 0 68.5 -20.5t33.5 -50.5l174 -428l164 428q16 41 47 56t66 15 q27 0 52.5 -5t39.5 -11l37 -745h-172l-19 448l-141 -340h-158l-135 326l-24 -434h-174z" />
<glyph unicode="&#x25fc;" horiz-adv-x="983" d="M0 0v983h983v-983h-983z" />
</font>
</defs>
</svg>
